%TF.GenerationSoftware,KiCad,Pcbnew,(6.0.7)*%
%TF.CreationDate,2022-10-09T19:07:04-07:00*%
%TF.ProjectId,PicoBOB,5069636f-424f-4422-9e6b-696361645f70,rev?*%
%TF.SameCoordinates,Original*%
%TF.FileFunction,Paste,Top*%
%TF.FilePolarity,Positive*%
%FSLAX46Y46*%
G04 Gerber Fmt 4.6, Leading zero omitted, Abs format (unit mm)*
G04 Created by KiCad (PCBNEW (6.0.7)) date 2022-10-09 19:07:04*
%MOMM*%
%LPD*%
G01*
G04 APERTURE LIST*
G04 Aperture macros list*
%AMRoundRect*
0 Rectangle with rounded corners*
0 $1 Rounding radius*
0 $2 $3 $4 $5 $6 $7 $8 $9 X,Y pos of 4 corners*
0 Add a 4 corners polygon primitive as box body*
4,1,4,$2,$3,$4,$5,$6,$7,$8,$9,$2,$3,0*
0 Add four circle primitives for the rounded corners*
1,1,$1+$1,$2,$3*
1,1,$1+$1,$4,$5*
1,1,$1+$1,$6,$7*
1,1,$1+$1,$8,$9*
0 Add four rect primitives between the rounded corners*
20,1,$1+$1,$2,$3,$4,$5,0*
20,1,$1+$1,$4,$5,$6,$7,0*
20,1,$1+$1,$6,$7,$8,$9,0*
20,1,$1+$1,$8,$9,$2,$3,0*%
G04 Aperture macros list end*
%ADD10RoundRect,0.250000X-0.450000X0.350000X-0.450000X-0.350000X0.450000X-0.350000X0.450000X0.350000X0*%
%ADD11RoundRect,0.250000X0.350000X0.450000X-0.350000X0.450000X-0.350000X-0.450000X0.350000X-0.450000X0*%
%ADD12RoundRect,0.250000X0.450000X-0.350000X0.450000X0.350000X-0.450000X0.350000X-0.450000X-0.350000X0*%
%ADD13RoundRect,0.250000X0.475000X-0.337500X0.475000X0.337500X-0.475000X0.337500X-0.475000X-0.337500X0*%
%ADD14RoundRect,0.250000X-0.350000X-0.450000X0.350000X-0.450000X0.350000X0.450000X-0.350000X0.450000X0*%
%ADD15RoundRect,0.250000X-0.475000X0.337500X-0.475000X-0.337500X0.475000X-0.337500X0.475000X0.337500X0*%
%ADD16RoundRect,0.250000X0.325000X0.450000X-0.325000X0.450000X-0.325000X-0.450000X0.325000X-0.450000X0*%
G04 APERTURE END LIST*
D10*
%TO.C,R7*%
X90170000Y-117840000D03*
X90170000Y-119840000D03*
%TD*%
D11*
%TO.C,R_Xs_83*%
X74390000Y-157480000D03*
X72390000Y-157480000D03*
%TD*%
%TO.C,R_As_83*%
X74390000Y-132080000D03*
X72390000Y-132080000D03*
%TD*%
D12*
%TO.C,R70*%
X69850000Y-118840000D03*
X69850000Y-116840000D03*
%TD*%
D10*
%TO.C,R65*%
X67310000Y-111760000D03*
X67310000Y-113760000D03*
%TD*%
D11*
%TO.C,R_Bd_83*%
X84550000Y-151130000D03*
X82550000Y-151130000D03*
%TD*%
D13*
%TO.C,C50*%
X72390000Y-118877500D03*
X72390000Y-116802500D03*
%TD*%
D12*
%TO.C,R74*%
X69850000Y-123920000D03*
X69850000Y-121920000D03*
%TD*%
D14*
%TO.C,R_EN_56*%
X82550000Y-166370000D03*
X84550000Y-166370000D03*
%TD*%
%TO.C,R_Yd_56*%
X82550000Y-147320000D03*
X84550000Y-147320000D03*
%TD*%
D11*
%TO.C,R_PWM_83*%
X74390000Y-163830000D03*
X72390000Y-163830000D03*
%TD*%
%TO.C,R_Zd_83*%
X84550000Y-138430000D03*
X82550000Y-138430000D03*
%TD*%
D13*
%TO.C,C53*%
X87630000Y-126497500D03*
X87630000Y-124422500D03*
%TD*%
%TO.C,C20*%
X85052500Y-119915000D03*
X85052500Y-117840000D03*
%TD*%
D11*
%TO.C,R_Xd_83*%
X84550000Y-157480000D03*
X82550000Y-157480000D03*
%TD*%
D14*
%TO.C,R10*%
X117110000Y-175260000D03*
X119110000Y-175260000D03*
%TD*%
D11*
%TO.C,R_Yd_83*%
X84550000Y-144780000D03*
X82550000Y-144780000D03*
%TD*%
%TO.C,R_Ad_83*%
X84550000Y-132080000D03*
X82550000Y-132080000D03*
%TD*%
D10*
%TO.C,R73*%
X67310000Y-121920000D03*
X67310000Y-123920000D03*
%TD*%
D11*
%TO.C,R_Ys_83*%
X74390000Y-144780000D03*
X72390000Y-144780000D03*
%TD*%
D14*
%TO.C,R_Xs_56*%
X72390000Y-160020000D03*
X74390000Y-160020000D03*
%TD*%
%TO.C,R_As_56*%
X72390000Y-134620000D03*
X74390000Y-134620000D03*
%TD*%
%TO.C,R_Ys_56*%
X72390000Y-147320000D03*
X74390000Y-147320000D03*
%TD*%
D12*
%TO.C,R66*%
X69850000Y-113760000D03*
X69850000Y-111760000D03*
%TD*%
D14*
%TO.C,R_PWM_56*%
X72390000Y-166370000D03*
X74390000Y-166370000D03*
%TD*%
D11*
%TO.C,R_Bs_83*%
X74390000Y-151130000D03*
X72390000Y-151130000D03*
%TD*%
D14*
%TO.C,R_Xd_56*%
X82550000Y-160020000D03*
X84550000Y-160020000D03*
%TD*%
%TO.C,R_Bd_56*%
X82550000Y-153670000D03*
X84550000Y-153670000D03*
%TD*%
D13*
%TO.C,C51*%
X72390000Y-123957500D03*
X72390000Y-121882500D03*
%TD*%
D12*
%TO.C,R9*%
X87592500Y-119840000D03*
X87592500Y-117840000D03*
%TD*%
D15*
%TO.C,C48*%
X85090000Y-111722500D03*
X85090000Y-113797500D03*
%TD*%
D14*
%TO.C,R20*%
X125000000Y-161000000D03*
X127000000Y-161000000D03*
%TD*%
D10*
%TO.C,R75*%
X85090000Y-124460000D03*
X85090000Y-126460000D03*
%TD*%
D11*
%TO.C,R_EN_83*%
X84550000Y-163830000D03*
X82550000Y-163830000D03*
%TD*%
D14*
%TO.C,R_Ad_56*%
X82550000Y-134620000D03*
X84550000Y-134620000D03*
%TD*%
D10*
%TO.C,R69*%
X67310000Y-116840000D03*
X67310000Y-118840000D03*
%TD*%
D16*
%TO.C,D1*%
X124215000Y-175260000D03*
X122165000Y-175260000D03*
%TD*%
D11*
%TO.C,R_Zs_83*%
X74390000Y-138430000D03*
X72390000Y-138430000D03*
%TD*%
D14*
%TO.C,R_Bs_56*%
X72390000Y-153670000D03*
X74390000Y-153670000D03*
%TD*%
D12*
%TO.C,R76*%
X90170000Y-126460000D03*
X90170000Y-124460000D03*
%TD*%
D13*
%TO.C,C49*%
X72390000Y-113797500D03*
X72390000Y-111722500D03*
%TD*%
D14*
%TO.C,R_Zs_56*%
X72390000Y-140970000D03*
X74390000Y-140970000D03*
%TD*%
%TO.C,R_Zd_56*%
X82550000Y-140970000D03*
X84550000Y-140970000D03*
%TD*%
M02*
