%TF.GenerationSoftware,KiCad,Pcbnew,(6.0.7)*%
%TF.CreationDate,2022-10-09T19:07:13-07:00*%
%TF.ProjectId,PicoBOB,5069636f-424f-4422-9e6b-696361645f70,rev?*%
%TF.SameCoordinates,Original*%
%TF.FileFunction,Drillmap*%
%TF.FilePolarity,Positive*%
%FSLAX45Y45*%
G04 Gerber Fmt 4.5, Leading zero omitted, Abs format (unit mm)*
G04 Created by KiCad (PCBNEW (6.0.7)) date 2022-10-09 19:07:13*
%MOMM*%
%LPD*%
G01*
G04 APERTURE LIST*
%ADD10C,0.100000*%
%ADD11C,0.200000*%
%ADD12C,0.350000*%
G04 APERTURE END LIST*
D10*
X11303000Y-10033000D02*
G75*
G03*
X11049000Y-9779000I-254000J0D01*
G01*
X8255000Y-18415000D02*
X8255000Y-17272000D01*
X11303000Y-10033000D02*
X11303000Y-10160000D01*
X8255000Y-18415000D02*
G75*
G03*
X8509000Y-18669000I254000J0D01*
G01*
X12901395Y-10414000D02*
X11557000Y-10414000D01*
X13155395Y-10668000D02*
X13155395Y-18415000D01*
X12901395Y-18669000D02*
X8509000Y-18669000D01*
X5334000Y-17018000D02*
X5334000Y-10033000D01*
X11303000Y-10160000D02*
G75*
G03*
X11557000Y-10414000I254000J0D01*
G01*
X12901395Y-18669005D02*
G75*
G03*
X13155395Y-18415000I-5J254005D01*
G01*
X5588000Y-9779000D02*
X11049000Y-9779000D01*
X5588000Y-9779000D02*
G75*
G03*
X5334000Y-10033000I-16330J-237670D01*
G01*
X8255000Y-17272000D02*
G75*
G03*
X8001000Y-17018000I-254000J0D01*
G01*
X13155390Y-10668000D02*
G75*
G03*
X12901395Y-10414000I-254000J0D01*
G01*
X8001000Y-17018000D02*
X5334000Y-17018000D01*
D11*
D12*
X5540000Y-9985000D02*
X5890000Y-10335000D01*
X5890000Y-9985000D02*
X5540000Y-10335000D01*
X8461000Y-17224000D02*
X8811000Y-17574000D01*
X8811000Y-17224000D02*
X8461000Y-17574000D01*
X10747000Y-9985000D02*
X11097000Y-10335000D01*
X11097000Y-9985000D02*
X10747000Y-10335000D01*
X11001000Y-17224000D02*
X11351000Y-17574000D01*
X11351000Y-17224000D02*
X11001000Y-17574000D01*
D11*
X5586059Y-18984476D02*
X5586059Y-18784476D01*
X5633678Y-18784476D01*
X5662249Y-18794000D01*
X5681297Y-18813048D01*
X5690821Y-18832095D01*
X5700344Y-18870190D01*
X5700344Y-18898762D01*
X5690821Y-18936857D01*
X5681297Y-18955905D01*
X5662249Y-18974952D01*
X5633678Y-18984476D01*
X5586059Y-18984476D01*
X5786059Y-18984476D02*
X5786059Y-18851143D01*
X5786059Y-18889238D02*
X5795582Y-18870190D01*
X5805106Y-18860667D01*
X5824154Y-18851143D01*
X5843202Y-18851143D01*
X5909868Y-18984476D02*
X5909868Y-18851143D01*
X5909868Y-18784476D02*
X5900344Y-18794000D01*
X5909868Y-18803524D01*
X5919392Y-18794000D01*
X5909868Y-18784476D01*
X5909868Y-18803524D01*
X6033678Y-18984476D02*
X6014630Y-18974952D01*
X6005106Y-18955905D01*
X6005106Y-18784476D01*
X6138440Y-18984476D02*
X6119392Y-18974952D01*
X6109868Y-18955905D01*
X6109868Y-18784476D01*
X6367011Y-18984476D02*
X6367011Y-18784476D01*
X6433678Y-18927333D01*
X6500344Y-18784476D01*
X6500344Y-18984476D01*
X6681297Y-18984476D02*
X6681297Y-18879714D01*
X6671773Y-18860667D01*
X6652725Y-18851143D01*
X6614630Y-18851143D01*
X6595582Y-18860667D01*
X6681297Y-18974952D02*
X6662249Y-18984476D01*
X6614630Y-18984476D01*
X6595582Y-18974952D01*
X6586059Y-18955905D01*
X6586059Y-18936857D01*
X6595582Y-18917810D01*
X6614630Y-18908286D01*
X6662249Y-18908286D01*
X6681297Y-18898762D01*
X6776535Y-18851143D02*
X6776535Y-19051143D01*
X6776535Y-18860667D02*
X6795582Y-18851143D01*
X6833678Y-18851143D01*
X6852725Y-18860667D01*
X6862249Y-18870190D01*
X6871773Y-18889238D01*
X6871773Y-18946381D01*
X6862249Y-18965429D01*
X6852725Y-18974952D01*
X6833678Y-18984476D01*
X6795582Y-18984476D01*
X6776535Y-18974952D01*
X6957487Y-18965429D02*
X6967011Y-18974952D01*
X6957487Y-18984476D01*
X6947963Y-18974952D01*
X6957487Y-18965429D01*
X6957487Y-18984476D01*
X6957487Y-18860667D02*
X6967011Y-18870190D01*
X6957487Y-18879714D01*
X6947963Y-18870190D01*
X6957487Y-18860667D01*
X6957487Y-18879714D01*
X5128440Y-19214000D02*
X5328440Y-19414000D01*
X5328440Y-19214000D02*
X5128440Y-19414000D01*
X5567011Y-19204476D02*
X5690821Y-19204476D01*
X5624154Y-19280667D01*
X5652725Y-19280667D01*
X5671773Y-19290190D01*
X5681297Y-19299714D01*
X5690821Y-19318762D01*
X5690821Y-19366381D01*
X5681297Y-19385429D01*
X5671773Y-19394952D01*
X5652725Y-19404476D01*
X5595582Y-19404476D01*
X5576535Y-19394952D01*
X5567011Y-19385429D01*
X5776535Y-19385429D02*
X5786059Y-19394952D01*
X5776535Y-19404476D01*
X5767011Y-19394952D01*
X5776535Y-19385429D01*
X5776535Y-19404476D01*
X5967011Y-19204476D02*
X5871773Y-19204476D01*
X5862249Y-19299714D01*
X5871773Y-19290190D01*
X5890821Y-19280667D01*
X5938440Y-19280667D01*
X5957487Y-19290190D01*
X5967011Y-19299714D01*
X5976535Y-19318762D01*
X5976535Y-19366381D01*
X5967011Y-19385429D01*
X5957487Y-19394952D01*
X5938440Y-19404476D01*
X5890821Y-19404476D01*
X5871773Y-19394952D01*
X5862249Y-19385429D01*
X6100344Y-19204476D02*
X6119392Y-19204476D01*
X6138440Y-19214000D01*
X6147963Y-19223524D01*
X6157487Y-19242571D01*
X6167011Y-19280667D01*
X6167011Y-19328286D01*
X6157487Y-19366381D01*
X6147963Y-19385429D01*
X6138440Y-19394952D01*
X6119392Y-19404476D01*
X6100344Y-19404476D01*
X6081297Y-19394952D01*
X6071773Y-19385429D01*
X6062249Y-19366381D01*
X6052725Y-19328286D01*
X6052725Y-19280667D01*
X6062249Y-19242571D01*
X6071773Y-19223524D01*
X6081297Y-19214000D01*
X6100344Y-19204476D01*
X6290821Y-19204476D02*
X6309868Y-19204476D01*
X6328916Y-19214000D01*
X6338440Y-19223524D01*
X6347963Y-19242571D01*
X6357487Y-19280667D01*
X6357487Y-19328286D01*
X6347963Y-19366381D01*
X6338440Y-19385429D01*
X6328916Y-19394952D01*
X6309868Y-19404476D01*
X6290821Y-19404476D01*
X6271773Y-19394952D01*
X6262249Y-19385429D01*
X6252725Y-19366381D01*
X6243202Y-19328286D01*
X6243202Y-19280667D01*
X6252725Y-19242571D01*
X6262249Y-19223524D01*
X6271773Y-19214000D01*
X6290821Y-19204476D01*
X6443202Y-19404476D02*
X6443202Y-19271143D01*
X6443202Y-19290190D02*
X6452725Y-19280667D01*
X6471773Y-19271143D01*
X6500344Y-19271143D01*
X6519392Y-19280667D01*
X6528916Y-19299714D01*
X6528916Y-19404476D01*
X6528916Y-19299714D02*
X6538440Y-19280667D01*
X6557487Y-19271143D01*
X6586059Y-19271143D01*
X6605106Y-19280667D01*
X6614630Y-19299714D01*
X6614630Y-19404476D01*
X6709868Y-19404476D02*
X6709868Y-19271143D01*
X6709868Y-19290190D02*
X6719392Y-19280667D01*
X6738440Y-19271143D01*
X6767011Y-19271143D01*
X6786059Y-19280667D01*
X6795582Y-19299714D01*
X6795582Y-19404476D01*
X6795582Y-19299714D02*
X6805106Y-19280667D01*
X6824154Y-19271143D01*
X6852725Y-19271143D01*
X6871773Y-19280667D01*
X6881297Y-19299714D01*
X6881297Y-19404476D01*
X7271773Y-19194952D02*
X7100344Y-19452095D01*
X7528916Y-19204476D02*
X7547963Y-19204476D01*
X7567011Y-19214000D01*
X7576535Y-19223524D01*
X7586059Y-19242571D01*
X7595582Y-19280667D01*
X7595582Y-19328286D01*
X7586059Y-19366381D01*
X7576535Y-19385429D01*
X7567011Y-19394952D01*
X7547963Y-19404476D01*
X7528916Y-19404476D01*
X7509868Y-19394952D01*
X7500344Y-19385429D01*
X7490821Y-19366381D01*
X7481297Y-19328286D01*
X7481297Y-19280667D01*
X7490821Y-19242571D01*
X7500344Y-19223524D01*
X7509868Y-19214000D01*
X7528916Y-19204476D01*
X7681297Y-19385429D02*
X7690821Y-19394952D01*
X7681297Y-19404476D01*
X7671773Y-19394952D01*
X7681297Y-19385429D01*
X7681297Y-19404476D01*
X7881297Y-19404476D02*
X7767011Y-19404476D01*
X7824154Y-19404476D02*
X7824154Y-19204476D01*
X7805106Y-19233048D01*
X7786059Y-19252095D01*
X7767011Y-19261619D01*
X7947963Y-19204476D02*
X8071773Y-19204476D01*
X8005106Y-19280667D01*
X8033678Y-19280667D01*
X8052725Y-19290190D01*
X8062249Y-19299714D01*
X8071773Y-19318762D01*
X8071773Y-19366381D01*
X8062249Y-19385429D01*
X8052725Y-19394952D01*
X8033678Y-19404476D01*
X7976535Y-19404476D01*
X7957487Y-19394952D01*
X7947963Y-19385429D01*
X8138440Y-19204476D02*
X8271773Y-19204476D01*
X8186059Y-19404476D01*
X8376535Y-19290190D02*
X8357487Y-19280667D01*
X8347963Y-19271143D01*
X8338440Y-19252095D01*
X8338440Y-19242571D01*
X8347963Y-19223524D01*
X8357487Y-19214000D01*
X8376535Y-19204476D01*
X8414630Y-19204476D01*
X8433678Y-19214000D01*
X8443202Y-19223524D01*
X8452725Y-19242571D01*
X8452725Y-19252095D01*
X8443202Y-19271143D01*
X8433678Y-19280667D01*
X8414630Y-19290190D01*
X8376535Y-19290190D01*
X8357487Y-19299714D01*
X8347963Y-19309238D01*
X8338440Y-19328286D01*
X8338440Y-19366381D01*
X8347963Y-19385429D01*
X8357487Y-19394952D01*
X8376535Y-19404476D01*
X8414630Y-19404476D01*
X8433678Y-19394952D01*
X8443202Y-19385429D01*
X8452725Y-19366381D01*
X8452725Y-19328286D01*
X8443202Y-19309238D01*
X8433678Y-19299714D01*
X8414630Y-19290190D01*
X8528916Y-19204476D02*
X8528916Y-19242571D01*
X8605106Y-19204476D02*
X8605106Y-19242571D01*
X8900344Y-19480667D02*
X8890821Y-19471143D01*
X8871773Y-19442571D01*
X8862249Y-19423524D01*
X8852725Y-19394952D01*
X8843202Y-19347333D01*
X8843202Y-19309238D01*
X8852725Y-19261619D01*
X8862249Y-19233048D01*
X8871773Y-19214000D01*
X8890821Y-19185429D01*
X8900344Y-19175905D01*
X9062249Y-19271143D02*
X9062249Y-19404476D01*
X9014630Y-19194952D02*
X8967011Y-19337810D01*
X9090821Y-19337810D01*
X9319392Y-19404476D02*
X9319392Y-19204476D01*
X9405106Y-19404476D02*
X9405106Y-19299714D01*
X9395583Y-19280667D01*
X9376535Y-19271143D01*
X9347964Y-19271143D01*
X9328916Y-19280667D01*
X9319392Y-19290190D01*
X9528916Y-19404476D02*
X9509868Y-19394952D01*
X9500344Y-19385429D01*
X9490821Y-19366381D01*
X9490821Y-19309238D01*
X9500344Y-19290190D01*
X9509868Y-19280667D01*
X9528916Y-19271143D01*
X9557487Y-19271143D01*
X9576535Y-19280667D01*
X9586059Y-19290190D01*
X9595583Y-19309238D01*
X9595583Y-19366381D01*
X9586059Y-19385429D01*
X9576535Y-19394952D01*
X9557487Y-19404476D01*
X9528916Y-19404476D01*
X9709868Y-19404476D02*
X9690821Y-19394952D01*
X9681297Y-19375905D01*
X9681297Y-19204476D01*
X9862249Y-19394952D02*
X9843202Y-19404476D01*
X9805106Y-19404476D01*
X9786059Y-19394952D01*
X9776535Y-19375905D01*
X9776535Y-19299714D01*
X9786059Y-19280667D01*
X9805106Y-19271143D01*
X9843202Y-19271143D01*
X9862249Y-19280667D01*
X9871773Y-19299714D01*
X9871773Y-19318762D01*
X9776535Y-19337810D01*
X9947964Y-19394952D02*
X9967011Y-19404476D01*
X10005106Y-19404476D01*
X10024154Y-19394952D01*
X10033678Y-19375905D01*
X10033678Y-19366381D01*
X10024154Y-19347333D01*
X10005106Y-19337810D01*
X9976535Y-19337810D01*
X9957487Y-19328286D01*
X9947964Y-19309238D01*
X9947964Y-19299714D01*
X9957487Y-19280667D01*
X9976535Y-19271143D01*
X10005106Y-19271143D01*
X10024154Y-19280667D01*
X10100344Y-19480667D02*
X10109868Y-19471143D01*
X10128916Y-19442571D01*
X10138440Y-19423524D01*
X10147964Y-19394952D01*
X10157487Y-19347333D01*
X10157487Y-19309238D01*
X10147964Y-19261619D01*
X10138440Y-19233048D01*
X10128916Y-19214000D01*
X10109868Y-19185429D01*
X10100344Y-19175905D01*
X10462249Y-19480667D02*
X10452725Y-19471143D01*
X10433678Y-19442571D01*
X10424154Y-19423524D01*
X10414630Y-19394952D01*
X10405106Y-19347333D01*
X10405106Y-19309238D01*
X10414630Y-19261619D01*
X10424154Y-19233048D01*
X10433678Y-19214000D01*
X10452725Y-19185429D01*
X10462249Y-19175905D01*
X10538440Y-19271143D02*
X10538440Y-19404476D01*
X10538440Y-19290190D02*
X10547964Y-19280667D01*
X10567011Y-19271143D01*
X10595583Y-19271143D01*
X10614630Y-19280667D01*
X10624154Y-19299714D01*
X10624154Y-19404476D01*
X10747964Y-19404476D02*
X10728916Y-19394952D01*
X10719392Y-19385429D01*
X10709868Y-19366381D01*
X10709868Y-19309238D01*
X10719392Y-19290190D01*
X10728916Y-19280667D01*
X10747964Y-19271143D01*
X10776535Y-19271143D01*
X10795583Y-19280667D01*
X10805106Y-19290190D01*
X10814630Y-19309238D01*
X10814630Y-19366381D01*
X10805106Y-19385429D01*
X10795583Y-19394952D01*
X10776535Y-19404476D01*
X10747964Y-19404476D01*
X10871773Y-19271143D02*
X10947964Y-19271143D01*
X10900344Y-19204476D02*
X10900344Y-19375905D01*
X10909868Y-19394952D01*
X10928916Y-19404476D01*
X10947964Y-19404476D01*
X11167011Y-19271143D02*
X11167011Y-19471143D01*
X11167011Y-19280667D02*
X11186059Y-19271143D01*
X11224154Y-19271143D01*
X11243202Y-19280667D01*
X11252725Y-19290190D01*
X11262249Y-19309238D01*
X11262249Y-19366381D01*
X11252725Y-19385429D01*
X11243202Y-19394952D01*
X11224154Y-19404476D01*
X11186059Y-19404476D01*
X11167011Y-19394952D01*
X11376535Y-19404476D02*
X11357487Y-19394952D01*
X11347963Y-19375905D01*
X11347963Y-19204476D01*
X11538440Y-19404476D02*
X11538440Y-19299714D01*
X11528916Y-19280667D01*
X11509868Y-19271143D01*
X11471773Y-19271143D01*
X11452725Y-19280667D01*
X11538440Y-19394952D02*
X11519392Y-19404476D01*
X11471773Y-19404476D01*
X11452725Y-19394952D01*
X11443202Y-19375905D01*
X11443202Y-19356857D01*
X11452725Y-19337810D01*
X11471773Y-19328286D01*
X11519392Y-19328286D01*
X11538440Y-19318762D01*
X11605106Y-19271143D02*
X11681297Y-19271143D01*
X11633678Y-19204476D02*
X11633678Y-19375905D01*
X11643202Y-19394952D01*
X11662249Y-19404476D01*
X11681297Y-19404476D01*
X11824154Y-19394952D02*
X11805106Y-19404476D01*
X11767011Y-19404476D01*
X11747963Y-19394952D01*
X11738440Y-19375905D01*
X11738440Y-19299714D01*
X11747963Y-19280667D01*
X11767011Y-19271143D01*
X11805106Y-19271143D01*
X11824154Y-19280667D01*
X11833678Y-19299714D01*
X11833678Y-19318762D01*
X11738440Y-19337810D01*
X12005106Y-19404476D02*
X12005106Y-19204476D01*
X12005106Y-19394952D02*
X11986059Y-19404476D01*
X11947963Y-19404476D01*
X11928916Y-19394952D01*
X11919392Y-19385429D01*
X11909868Y-19366381D01*
X11909868Y-19309238D01*
X11919392Y-19290190D01*
X11928916Y-19280667D01*
X11947963Y-19271143D01*
X11986059Y-19271143D01*
X12005106Y-19280667D01*
X12081297Y-19480667D02*
X12090821Y-19471143D01*
X12109868Y-19442571D01*
X12119392Y-19423524D01*
X12128916Y-19394952D01*
X12138440Y-19347333D01*
X12138440Y-19309238D01*
X12128916Y-19261619D01*
X12119392Y-19233048D01*
X12109868Y-19214000D01*
X12090821Y-19185429D01*
X12081297Y-19175905D01*
M02*
