%TF.GenerationSoftware,KiCad,Pcbnew,(6.0.7)*%
%TF.CreationDate,2022-10-09T19:07:04-07:00*%
%TF.ProjectId,PicoBOB,5069636f-424f-4422-9e6b-696361645f70,rev?*%
%TF.SameCoordinates,Original*%
%TF.FileFunction,Legend,Bot*%
%TF.FilePolarity,Positive*%
%FSLAX46Y46*%
G04 Gerber Fmt 4.6, Leading zero omitted, Abs format (unit mm)*
G04 Created by KiCad (PCBNEW (6.0.7)) date 2022-10-09 19:07:04*
%MOMM*%
%LPD*%
G01*
G04 APERTURE LIST*
%ADD10C,0.150000*%
%ADD11C,0.120000*%
G04 APERTURE END LIST*
D10*
%TO.C,J31*%
X125269523Y-159672380D02*
X125269523Y-160386666D01*
X125317142Y-160529523D01*
X125412380Y-160624761D01*
X125555238Y-160672380D01*
X125650476Y-160672380D01*
X124888571Y-159672380D02*
X124269523Y-159672380D01*
X124602857Y-160053333D01*
X124460000Y-160053333D01*
X124364761Y-160100952D01*
X124317142Y-160148571D01*
X124269523Y-160243809D01*
X124269523Y-160481904D01*
X124317142Y-160577142D01*
X124364761Y-160624761D01*
X124460000Y-160672380D01*
X124745714Y-160672380D01*
X124840952Y-160624761D01*
X124888571Y-160577142D01*
X123317142Y-160672380D02*
X123888571Y-160672380D01*
X123602857Y-160672380D02*
X123602857Y-159672380D01*
X123698095Y-159815238D01*
X123793333Y-159910476D01*
X123888571Y-159958095D01*
D11*
X124460000Y-156180000D02*
X127060000Y-156180000D01*
X127060000Y-156180000D02*
X127060000Y-107860000D01*
X125730000Y-158780000D02*
X127060000Y-158780000D01*
X121860000Y-158780000D02*
X124460000Y-158780000D01*
X127060000Y-158780000D02*
X127060000Y-157450000D01*
X121860000Y-107860000D02*
X127060000Y-107860000D01*
X124460000Y-158780000D02*
X124460000Y-156180000D01*
X121860000Y-158780000D02*
X121860000Y-107860000D01*
%TD*%
M02*
