M48
; DRILL file {KiCad (6.0.7)} date Sun Oct  9 19:07:07 2022
; FORMAT={-:-/ absolute / inch / decimal}
; #@! TF.CreationDate,2022-10-09T19:07:07-07:00
; #@! TF.GenerationSoftware,Kicad,Pcbnew,(6.0.7)
; #@! TF.FileFunction,Plated,1,2,PTH
FMAT,2
INCH
; #@! TA.AperFunction,Plated,PTH,ViaDrill
T1C0.0157
; #@! TA.AperFunction,Plated,PTH,ViaDrill
T2C0.0236
; #@! TA.AperFunction,Plated,PTH,ComponentDrill
T3C0.0295
; #@! TA.AperFunction,Plated,PTH,ComponentDrill
T4C0.0300
; #@! TA.AperFunction,Plated,PTH,ComponentDrill
T5C0.0315
; #@! TA.AperFunction,Plated,PTH,ComponentDrill
T6C0.0374
; #@! TA.AperFunction,Plated,PTH,ComponentDrill
T7C0.0394
; #@! TA.AperFunction,Plated,PTH,ComponentDrill
T8C0.0433
; #@! TA.AperFunction,Plated,PTH,ComponentDrill
T9C0.0906
; #@! TA.AperFunction,Plated,PTH,ComponentDrill
T10C0.1260
%
G90
G05
T1
X2.2Y-6.2
X2.22Y-4.62
X2.25Y-6.35
X2.26Y-4.32
X2.26Y-4.8
X2.4Y-4.25
X2.42Y-4.4
X2.75Y-5.6
X2.75Y-5.85
X2.8Y-6.1
X2.8Y-6.35
X2.85Y-4.55
X2.85Y-4.75
X2.85Y-4.95
X2.951Y-5.8541
X2.9798Y-5.9702
X2.9921Y-5.7087
X3.0Y-5.6
X3.0Y-5.8
X3.0Y-6.1
X3.0Y-6.35
X3.05Y-4.75
X3.05Y-4.85
X3.1Y-4.22
X3.1Y-5.1
X3.15Y-4.9
X3.15Y-5.0
X3.1606Y-4.7894
X3.18Y-4.02
X3.2Y-4.7
X3.2Y-5.0
X3.3Y-5.15
X3.4Y-4.75
X3.4Y-5.3
X3.4Y-5.35
X3.4Y-6.65
X3.44Y-4.08
X3.447Y-6.1822
X3.45Y-4.45
X3.45Y-5.05
X3.45Y-5.15
X3.45Y-5.5
X3.45Y-5.65
X3.4591Y-6.5002
X3.46Y-5.94
X3.46Y-7.18
X3.5Y-5.25
X3.5Y-5.55
X3.5Y-5.85
X3.5Y-6.6
X3.55Y-5.5
X3.58Y-6.08
X3.5971Y-5.4971
X3.6Y-4.95
X3.6Y-6.42
X3.6012Y-4.9
X3.65Y-4.7
X3.65Y-4.75
X3.65Y-5.55
X3.7Y-5.6
X3.7Y-5.65
X3.72Y-4.02
X3.75Y-5.25
X3.75Y-5.7
X3.75Y-6.4
X3.78Y-6.62
X3.8Y-4.15
X3.8Y-5.25
X3.8Y-7.14
X3.8077Y-4.4577
X3.8398Y-6.5194
X3.95Y-5.45
X3.95Y-5.65
X3.95Y-6.4
X3.96Y-4.02
X3.9721Y-5.0125
X4.0Y-4.95
X4.0Y-6.62
X4.0195Y-4.5798
X4.02Y-4.7
X4.04Y-6.02
X4.05Y-5.3
X4.05Y-5.6
X4.16Y-4.58
X4.2Y-5.26
X4.2093Y-4.9181
X4.22Y-4.7
X4.24Y-5.58
X4.26Y-4.36
X4.2729Y-6.2034
X4.3Y-5.78
X4.34Y-4.86
X4.35Y-5.25
X4.36Y-6.4
X4.4Y-5.05
X4.4Y-5.3
X4.4Y-5.6
X4.45Y-4.25
X4.45Y-4.5
X4.45Y-4.65
X4.4746Y-5.3246
X4.475Y-6.05
X4.48Y-6.38
X4.5Y-4.4
X4.5Y-4.5
X4.5Y-4.7
X4.5Y-5.0
X4.5Y-5.6
X4.5Y-5.9
X4.6Y-6.3
X4.6Y-6.35
X4.6Y-7.05
X4.7Y-4.94
X4.7Y-6.95
X4.7Y-7.15
X4.72Y-4.36
X4.74Y-4.62
X4.75Y-5.2
X4.75Y-5.45
X4.75Y-6.0
X4.75Y-6.5
X4.7579Y-5.3921
X4.775Y-5.05
X4.7965Y-5.9465
X4.7977Y-6.0523
X4.8Y-6.3
X5.05Y-7.05
X5.1Y-6.1
X5.1Y-6.2
T2
X2.55Y-4.55
X2.6Y-4.7
X2.65Y-4.95
X2.9Y-5.35
X2.9Y-5.6
X2.9Y-5.85
X2.9Y-6.1
X2.9Y-6.35
X2.9Y-6.6
X3.0Y-6.62
X3.15Y-6.6
X3.2976Y-5.7552
X3.3Y-5.35
X3.3Y-5.6
X3.3Y-5.85
X3.3Y-6.1
X3.3Y-6.35
X3.3Y-6.6
X3.35Y-4.8449
X3.35Y-5.05
X3.3518Y-5.258
X3.75Y-4.3
X4.1Y-5.0
X4.1Y-5.1
X4.2Y-6.65
X4.45Y-7.05
X4.7Y-6.3
T3
X2.7Y-5.2
X2.7Y-5.3
X2.7Y-5.45
X2.7Y-5.55
X2.7Y-5.7
X2.7Y-5.8
X2.7Y-5.95
X2.7Y-6.05
X2.7Y-6.2
X2.7Y-6.3
X2.7Y-6.45
X2.7Y-6.55
X2.75Y-5.25
X2.75Y-5.5
X2.75Y-5.75
X2.75Y-6.0
X2.75Y-6.25
X2.75Y-6.5
X3.1Y-5.2
X3.1Y-5.3
X3.1Y-5.45
X3.1Y-5.55
X3.1Y-5.7
X3.1Y-5.8
X3.1Y-5.95
X3.1Y-6.05
X3.1Y-6.2
X3.1Y-6.3
X3.1Y-6.45
X3.1Y-6.55
X3.15Y-5.25
X3.15Y-5.5
X3.15Y-5.75
X3.15Y-6.0
X3.15Y-6.25
X3.15Y-6.5
T4
X3.9Y-4.3
X3.9Y-4.4
X3.9Y-4.5
X3.9Y-4.6
X3.9Y-4.7
X3.9Y-4.8
X3.9Y-4.9
X3.9Y-5.0
X3.9Y-5.1
X3.9Y-5.2
X3.9Y-5.3
X3.9Y-5.4
X3.9Y-5.5
X3.9Y-5.6
X3.9Y-5.7
X3.9Y-5.8
X3.9Y-5.9
X3.9Y-6.0
X3.9Y-6.1
X3.9Y-6.2
X4.6Y-4.3
X4.6Y-4.4
X4.6Y-4.5
X4.6Y-4.6
X4.6Y-4.7
X4.6Y-4.8
X4.6Y-4.9
X4.6Y-5.0
X4.6Y-5.1
X4.6Y-5.2
X4.6Y-5.3
X4.6Y-5.4
X4.6Y-5.5
X4.6Y-5.6
X4.6Y-5.7
X4.6Y-5.8
X4.6Y-5.9
X4.6Y-6.0
X4.6Y-6.1
X4.6Y-6.2
T5
X2.95Y-4.4394
X2.95Y-4.5394
X2.95Y-4.6394
X2.95Y-4.7394
X2.95Y-4.8394
X2.95Y-4.9394
X2.95Y-5.0394
X3.25Y-4.4394
X3.25Y-4.5394
X3.25Y-4.6394
X3.25Y-4.7394
X3.25Y-4.8394
X3.25Y-4.9394
X3.25Y-5.0394
T6
X3.7622Y-6.839
X3.8606Y-6.839
X3.9394Y-6.839
X4.0378Y-6.839
T7
X2.2882Y-4.9459
X2.2882Y-5.0549
X2.2882Y-5.164
X2.2882Y-5.273
X2.2882Y-5.3821
X2.2882Y-5.4911
X2.2882Y-5.6002
X2.2882Y-5.7093
X2.2882Y-5.8183
X2.2882Y-5.9274
X2.2882Y-6.0364
X2.2882Y-6.1455
X2.4Y-4.8913
X2.4Y-5.0004
X2.4Y-5.1094
X2.4Y-5.2185
X2.4Y-5.3276
X2.4Y-5.4366
X2.4Y-5.5457
X2.4Y-5.6547
X2.4Y-5.7638
X2.4Y-5.8728
X2.4Y-5.9819
X2.4Y-6.0909
X2.4Y-6.2
X4.35Y-7.25
X4.45Y-7.25
X4.55Y-7.25
X4.65Y-6.45
X4.65Y-6.55
X4.65Y-6.65
X4.65Y-7.25
X4.75Y-7.25
X4.85Y-4.2988
X4.85Y-4.3988
X4.85Y-4.4988
X4.85Y-4.5988
X4.85Y-4.6988
X4.85Y-4.7988
X4.85Y-4.8988
X4.85Y-4.9988
X4.85Y-5.0988
X4.85Y-5.1988
X4.85Y-5.2988
X4.85Y-5.3988
X4.85Y-5.4988
X4.85Y-5.5988
X4.85Y-5.6988
X4.85Y-5.7988
X4.85Y-5.8988
X4.85Y-5.9988
X4.85Y-6.0988
X4.85Y-6.1988
X4.85Y-6.45
X4.85Y-6.55
X4.85Y-6.65
X4.85Y-7.25
X4.95Y-4.2988
X4.95Y-4.3988
X4.95Y-4.4988
X4.95Y-4.5988
X4.95Y-4.6988
X4.95Y-4.7988
X4.95Y-4.8988
X4.95Y-4.9988
X4.95Y-5.0988
X4.95Y-5.1988
X4.95Y-5.2988
X4.95Y-5.3988
X4.95Y-5.4988
X4.95Y-5.5988
X4.95Y-5.6988
X4.95Y-5.7988
X4.95Y-5.8988
X4.95Y-5.9988
X4.95Y-6.0988
X4.95Y-6.1988
X4.95Y-6.45
X4.95Y-6.55
X4.95Y-6.65
T8
X2.6941Y-4.0
X2.6941Y-4.1772
X2.95Y-4.0
X2.95Y-4.1772
T9
X3.6413Y-6.9457
X4.1587Y-6.9457
T10
X2.3882Y-4.6185
X2.3882Y-6.4728
T0
M30
