%TF.GenerationSoftware,KiCad,Pcbnew,(6.0.7)*%
%TF.CreationDate,2022-10-09T19:07:04-07:00*%
%TF.ProjectId,PicoBOB,5069636f-424f-4422-9e6b-696361645f70,rev?*%
%TF.SameCoordinates,Original*%
%TF.FileFunction,Legend,Top*%
%TF.FilePolarity,Positive*%
%FSLAX46Y46*%
G04 Gerber Fmt 4.6, Leading zero omitted, Abs format (unit mm)*
G04 Created by KiCad (PCBNEW (6.0.7)) date 2022-10-09 19:07:04*
%MOMM*%
%LPD*%
G01*
G04 APERTURE LIST*
%ADD10C,0.150000*%
%ADD11C,0.120000*%
%ADD12C,0.200000*%
G04 APERTURE END LIST*
D10*
X128357380Y-171457380D02*
X129166904Y-171457380D01*
X129262142Y-171409761D01*
X129309761Y-171362142D01*
X129357380Y-171266904D01*
X129357380Y-171076428D01*
X129309761Y-170981190D01*
X129262142Y-170933571D01*
X129166904Y-170885952D01*
X128357380Y-170885952D01*
X129071666Y-170457380D02*
X129071666Y-169981190D01*
X129357380Y-170552619D02*
X128357380Y-170219285D01*
X129357380Y-169885952D01*
X129357380Y-168981190D02*
X128881190Y-169314523D01*
X129357380Y-169552619D02*
X128357380Y-169552619D01*
X128357380Y-169171666D01*
X128405000Y-169076428D01*
X128452619Y-169028809D01*
X128547857Y-168981190D01*
X128690714Y-168981190D01*
X128785952Y-169028809D01*
X128833571Y-169076428D01*
X128881190Y-169171666D01*
X128881190Y-169552619D01*
X128357380Y-168695476D02*
X128357380Y-168124047D01*
X129357380Y-168409761D02*
X128357380Y-168409761D01*
X129262142Y-166457380D02*
X129309761Y-166505000D01*
X129357380Y-166647857D01*
X129357380Y-166743095D01*
X129309761Y-166885952D01*
X129214523Y-166981190D01*
X129119285Y-167028809D01*
X128928809Y-167076428D01*
X128785952Y-167076428D01*
X128595476Y-167028809D01*
X128500238Y-166981190D01*
X128405000Y-166885952D01*
X128357380Y-166743095D01*
X128357380Y-166647857D01*
X128405000Y-166505000D01*
X128452619Y-166457380D01*
X129357380Y-165457380D02*
X128881190Y-165790714D01*
X129357380Y-166028809D02*
X128357380Y-166028809D01*
X128357380Y-165647857D01*
X128405000Y-165552619D01*
X128452619Y-165505000D01*
X128547857Y-165457380D01*
X128690714Y-165457380D01*
X128785952Y-165505000D01*
X128833571Y-165552619D01*
X128881190Y-165647857D01*
X128881190Y-166028809D01*
X128357380Y-164838333D02*
X128357380Y-164647857D01*
X128405000Y-164552619D01*
X128500238Y-164457380D01*
X128690714Y-164409761D01*
X129024047Y-164409761D01*
X129214523Y-164457380D01*
X129309761Y-164552619D01*
X129357380Y-164647857D01*
X129357380Y-164838333D01*
X129309761Y-164933571D01*
X129214523Y-165028809D01*
X129024047Y-165076428D01*
X128690714Y-165076428D01*
X128500238Y-165028809D01*
X128405000Y-164933571D01*
X128357380Y-164838333D01*
X129309761Y-164028809D02*
X129357380Y-163885952D01*
X129357380Y-163647857D01*
X129309761Y-163552619D01*
X129262142Y-163505000D01*
X129166904Y-163457380D01*
X129071666Y-163457380D01*
X128976428Y-163505000D01*
X128928809Y-163552619D01*
X128881190Y-163647857D01*
X128833571Y-163838333D01*
X128785952Y-163933571D01*
X128738333Y-163981190D01*
X128643095Y-164028809D01*
X128547857Y-164028809D01*
X128452619Y-163981190D01*
X128405000Y-163933571D01*
X128357380Y-163838333D01*
X128357380Y-163600238D01*
X128405000Y-163457380D01*
X129309761Y-163076428D02*
X129357380Y-162933571D01*
X129357380Y-162695476D01*
X129309761Y-162600238D01*
X129262142Y-162552619D01*
X129166904Y-162505000D01*
X129071666Y-162505000D01*
X128976428Y-162552619D01*
X128928809Y-162600238D01*
X128881190Y-162695476D01*
X128833571Y-162885952D01*
X128785952Y-162981190D01*
X128738333Y-163028809D01*
X128643095Y-163076428D01*
X128547857Y-163076428D01*
X128452619Y-163028809D01*
X128405000Y-162981190D01*
X128357380Y-162885952D01*
X128357380Y-162647857D01*
X128405000Y-162505000D01*
X127635000Y-162500000D02*
X127635000Y-167640000D01*
X124460000Y-167640000D02*
X127000000Y-167640000D01*
X121255000Y-165100000D02*
X121257878Y-170224803D01*
X124460000Y-167640000D02*
X124460000Y-170240000D01*
X101179428Y-100528380D02*
X100846095Y-100052190D01*
X100608000Y-100528380D02*
X100608000Y-99528380D01*
X100988952Y-99528380D01*
X101084190Y-99576000D01*
X101131809Y-99623619D01*
X101179428Y-99718857D01*
X101179428Y-99861714D01*
X101131809Y-99956952D01*
X101084190Y-100004571D01*
X100988952Y-100052190D01*
X100608000Y-100052190D01*
X101988952Y-100480761D02*
X101893714Y-100528380D01*
X101703238Y-100528380D01*
X101608000Y-100480761D01*
X101560380Y-100385523D01*
X101560380Y-100004571D01*
X101608000Y-99909333D01*
X101703238Y-99861714D01*
X101893714Y-99861714D01*
X101988952Y-99909333D01*
X102036571Y-100004571D01*
X102036571Y-100099809D01*
X101560380Y-100195047D01*
X102369904Y-99861714D02*
X102608000Y-100528380D01*
X102846095Y-99861714D01*
X103179428Y-100242666D02*
X103655619Y-100242666D01*
X103084190Y-100528380D02*
X103417523Y-99528380D01*
X103750857Y-100528380D01*
X78352380Y-100528380D02*
X78352380Y-99528380D01*
X78733333Y-99528380D01*
X78828571Y-99576000D01*
X78876190Y-99623619D01*
X78923809Y-99718857D01*
X78923809Y-99861714D01*
X78876190Y-99956952D01*
X78828571Y-100004571D01*
X78733333Y-100052190D01*
X78352380Y-100052190D01*
X79352380Y-100528380D02*
X79352380Y-99861714D01*
X79352380Y-99528380D02*
X79304761Y-99576000D01*
X79352380Y-99623619D01*
X79400000Y-99576000D01*
X79352380Y-99528380D01*
X79352380Y-99623619D01*
X80257142Y-100480761D02*
X80161904Y-100528380D01*
X79971428Y-100528380D01*
X79876190Y-100480761D01*
X79828571Y-100433142D01*
X79780952Y-100337904D01*
X79780952Y-100052190D01*
X79828571Y-99956952D01*
X79876190Y-99909333D01*
X79971428Y-99861714D01*
X80161904Y-99861714D01*
X80257142Y-99909333D01*
X80828571Y-100528380D02*
X80733333Y-100480761D01*
X80685714Y-100433142D01*
X80638095Y-100337904D01*
X80638095Y-100052190D01*
X80685714Y-99956952D01*
X80733333Y-99909333D01*
X80828571Y-99861714D01*
X80971428Y-99861714D01*
X81066666Y-99909333D01*
X81114285Y-99956952D01*
X81161904Y-100052190D01*
X81161904Y-100337904D01*
X81114285Y-100433142D01*
X81066666Y-100480761D01*
X80971428Y-100528380D01*
X80828571Y-100528380D01*
X81923809Y-100004571D02*
X82066666Y-100052190D01*
X82114285Y-100099809D01*
X82161904Y-100195047D01*
X82161904Y-100337904D01*
X82114285Y-100433142D01*
X82066666Y-100480761D01*
X81971428Y-100528380D01*
X81590476Y-100528380D01*
X81590476Y-99528380D01*
X81923809Y-99528380D01*
X82019047Y-99576000D01*
X82066666Y-99623619D01*
X82114285Y-99718857D01*
X82114285Y-99814095D01*
X82066666Y-99909333D01*
X82019047Y-99956952D01*
X81923809Y-100004571D01*
X81590476Y-100004571D01*
X82733333Y-100528380D02*
X82638095Y-100480761D01*
X82590476Y-100433142D01*
X82542857Y-100337904D01*
X82542857Y-100052190D01*
X82590476Y-99956952D01*
X82638095Y-99909333D01*
X82733333Y-99861714D01*
X82876190Y-99861714D01*
X82971428Y-99909333D01*
X83019047Y-99956952D01*
X83066666Y-100052190D01*
X83066666Y-100337904D01*
X83019047Y-100433142D01*
X82971428Y-100480761D01*
X82876190Y-100528380D01*
X82733333Y-100528380D01*
X83495238Y-100528380D02*
X83495238Y-99528380D01*
X83495238Y-99909333D02*
X83590476Y-99861714D01*
X83780952Y-99861714D01*
X83876190Y-99909333D01*
X83923809Y-99956952D01*
X83971428Y-100052190D01*
X83971428Y-100337904D01*
X83923809Y-100433142D01*
X83876190Y-100480761D01*
X83780952Y-100528380D01*
X83590476Y-100528380D01*
X83495238Y-100480761D01*
X84400000Y-100147428D02*
X85161904Y-100147428D01*
X84780952Y-100528380D02*
X84780952Y-99766476D01*
X85638095Y-100147428D02*
X86400000Y-100147428D01*
X86019047Y-100528380D02*
X86019047Y-99766476D01*
X86876190Y-100147428D02*
X87638095Y-100147428D01*
X87257142Y-100528380D02*
X87257142Y-99766476D01*
X89352380Y-100528380D02*
X88876190Y-100528380D01*
X88876190Y-99528380D01*
X90257142Y-100433142D02*
X90209523Y-100480761D01*
X90066666Y-100528380D01*
X89971428Y-100528380D01*
X89828571Y-100480761D01*
X89733333Y-100385523D01*
X89685714Y-100290285D01*
X89638095Y-100099809D01*
X89638095Y-99956952D01*
X89685714Y-99766476D01*
X89733333Y-99671238D01*
X89828571Y-99576000D01*
X89971428Y-99528380D01*
X90066666Y-99528380D01*
X90209523Y-99576000D01*
X90257142Y-99623619D01*
X90685714Y-100528380D02*
X90685714Y-99528380D01*
X91257142Y-100528380D01*
X91257142Y-99528380D01*
X92304761Y-100433142D02*
X92257142Y-100480761D01*
X92114285Y-100528380D01*
X92019047Y-100528380D01*
X91876190Y-100480761D01*
X91780952Y-100385523D01*
X91733333Y-100290285D01*
X91685714Y-100099809D01*
X91685714Y-99956952D01*
X91733333Y-99766476D01*
X91780952Y-99671238D01*
X91876190Y-99576000D01*
X92019047Y-99528380D01*
X92114285Y-99528380D01*
X92257142Y-99576000D01*
X92304761Y-99623619D01*
X93447619Y-99480761D02*
X92590476Y-100766476D01*
X94304761Y-99576000D02*
X94209523Y-99528380D01*
X94066666Y-99528380D01*
X93923809Y-99576000D01*
X93828571Y-99671238D01*
X93780952Y-99766476D01*
X93733333Y-99956952D01*
X93733333Y-100099809D01*
X93780952Y-100290285D01*
X93828571Y-100385523D01*
X93923809Y-100480761D01*
X94066666Y-100528380D01*
X94161904Y-100528380D01*
X94304761Y-100480761D01*
X94352380Y-100433142D01*
X94352380Y-100099809D01*
X94161904Y-100099809D01*
X94780952Y-100528380D02*
X94780952Y-99861714D01*
X94780952Y-100052190D02*
X94828571Y-99956952D01*
X94876190Y-99909333D01*
X94971428Y-99861714D01*
X95066666Y-99861714D01*
X95400000Y-100528380D02*
X95400000Y-99528380D01*
X95400000Y-99909333D02*
X95495238Y-99861714D01*
X95685714Y-99861714D01*
X95780952Y-99909333D01*
X95828571Y-99956952D01*
X95876190Y-100052190D01*
X95876190Y-100337904D01*
X95828571Y-100433142D01*
X95780952Y-100480761D01*
X95685714Y-100528380D01*
X95495238Y-100528380D01*
X95400000Y-100480761D01*
X96447619Y-100528380D02*
X96352380Y-100480761D01*
X96304761Y-100385523D01*
X96304761Y-99528380D01*
X96828571Y-100528380D02*
X96828571Y-99528380D01*
X97257142Y-100528380D02*
X97257142Y-100004571D01*
X97209523Y-99909333D01*
X97114285Y-99861714D01*
X96971428Y-99861714D01*
X96876190Y-99909333D01*
X96828571Y-99956952D01*
X98161904Y-100528380D02*
X98161904Y-100004571D01*
X98114285Y-99909333D01*
X98019047Y-99861714D01*
X97828571Y-99861714D01*
X97733333Y-99909333D01*
X98161904Y-100480761D02*
X98066666Y-100528380D01*
X97828571Y-100528380D01*
X97733333Y-100480761D01*
X97685714Y-100385523D01*
X97685714Y-100290285D01*
X97733333Y-100195047D01*
X97828571Y-100147428D01*
X98066666Y-100147428D01*
X98161904Y-100099809D01*
X98780952Y-100528380D02*
X98685714Y-100480761D01*
X98638095Y-100385523D01*
X98638095Y-99528380D01*
X54880190Y-112736380D02*
X55451619Y-112736380D01*
X55165904Y-113736380D02*
X55165904Y-112736380D01*
X55927809Y-113736380D02*
X55832571Y-113688761D01*
X55784952Y-113641142D01*
X55737333Y-113545904D01*
X55737333Y-113260190D01*
X55784952Y-113164952D01*
X55832571Y-113117333D01*
X55927809Y-113069714D01*
X56070666Y-113069714D01*
X56165904Y-113117333D01*
X56213523Y-113164952D01*
X56261142Y-113260190D01*
X56261142Y-113545904D01*
X56213523Y-113641142D01*
X56165904Y-113688761D01*
X56070666Y-113736380D01*
X55927809Y-113736380D01*
X57784952Y-113212571D02*
X57927809Y-113260190D01*
X57975428Y-113307809D01*
X58023047Y-113403047D01*
X58023047Y-113545904D01*
X57975428Y-113641142D01*
X57927809Y-113688761D01*
X57832571Y-113736380D01*
X57451619Y-113736380D01*
X57451619Y-112736380D01*
X57784952Y-112736380D01*
X57880190Y-112784000D01*
X57927809Y-112831619D01*
X57975428Y-112926857D01*
X57975428Y-113022095D01*
X57927809Y-113117333D01*
X57880190Y-113164952D01*
X57784952Y-113212571D01*
X57451619Y-113212571D01*
X58594476Y-113736380D02*
X58499238Y-113688761D01*
X58451619Y-113641142D01*
X58404000Y-113545904D01*
X58404000Y-113260190D01*
X58451619Y-113164952D01*
X58499238Y-113117333D01*
X58594476Y-113069714D01*
X58737333Y-113069714D01*
X58832571Y-113117333D01*
X58880190Y-113164952D01*
X58927809Y-113260190D01*
X58927809Y-113545904D01*
X58880190Y-113641142D01*
X58832571Y-113688761D01*
X58737333Y-113736380D01*
X58594476Y-113736380D01*
X59356380Y-113736380D02*
X59356380Y-112736380D01*
X59356380Y-113117333D02*
X59451619Y-113069714D01*
X59642095Y-113069714D01*
X59737333Y-113117333D01*
X59784952Y-113164952D01*
X59832571Y-113260190D01*
X59832571Y-113545904D01*
X59784952Y-113641142D01*
X59737333Y-113688761D01*
X59642095Y-113736380D01*
X59451619Y-113736380D01*
X59356380Y-113688761D01*
X78192380Y-119617714D02*
X78192380Y-118951047D01*
X79192380Y-119379619D01*
X78525714Y-118141523D02*
X79192380Y-118141523D01*
X78144761Y-118379619D02*
X78859047Y-118617714D01*
X78859047Y-117998666D01*
X79192380Y-117617714D02*
X78192380Y-117617714D01*
X78668571Y-117617714D02*
X78668571Y-117046285D01*
X79192380Y-117046285D02*
X78192380Y-117046285D01*
X79097142Y-115998666D02*
X79144761Y-116046285D01*
X79192380Y-116189142D01*
X79192380Y-116284380D01*
X79144761Y-116427238D01*
X79049523Y-116522476D01*
X78954285Y-116570095D01*
X78763809Y-116617714D01*
X78620952Y-116617714D01*
X78430476Y-116570095D01*
X78335238Y-116522476D01*
X78240000Y-116427238D01*
X78192380Y-116284380D01*
X78192380Y-116189142D01*
X78240000Y-116046285D01*
X78287619Y-115998666D01*
X79192380Y-115046285D02*
X79192380Y-115617714D01*
X79192380Y-115332000D02*
X78192380Y-115332000D01*
X78335238Y-115427238D01*
X78430476Y-115522476D01*
X78478095Y-115617714D01*
X78525714Y-114189142D02*
X79192380Y-114189142D01*
X78144761Y-114427238D02*
X78859047Y-114665333D01*
X78859047Y-114046285D01*
X79192380Y-113665333D02*
X78192380Y-113665333D01*
X78192380Y-113427238D01*
X78240000Y-113284380D01*
X78335238Y-113189142D01*
X78430476Y-113141523D01*
X78620952Y-113093904D01*
X78763809Y-113093904D01*
X78954285Y-113141523D01*
X79049523Y-113189142D01*
X79144761Y-113284380D01*
X79192380Y-113427238D01*
X79192380Y-113665333D01*
X103663428Y-106227619D02*
X103996761Y-106703809D01*
X104234857Y-106227619D02*
X104234857Y-107227619D01*
X103853904Y-107227619D01*
X103758666Y-107180000D01*
X103711047Y-107132380D01*
X103663428Y-107037142D01*
X103663428Y-106894285D01*
X103711047Y-106799047D01*
X103758666Y-106751428D01*
X103853904Y-106703809D01*
X104234857Y-106703809D01*
X103234857Y-106227619D02*
X103234857Y-107227619D01*
X102853904Y-107227619D01*
X102758666Y-107180000D01*
X102711047Y-107132380D01*
X102663428Y-107037142D01*
X102663428Y-106894285D01*
X102711047Y-106799047D01*
X102758666Y-106751428D01*
X102853904Y-106703809D01*
X103234857Y-106703809D01*
X102234857Y-106227619D02*
X102234857Y-107227619D01*
X100996761Y-106227619D02*
X100996761Y-107227619D01*
X100615809Y-107227619D01*
X100520571Y-107180000D01*
X100472952Y-107132380D01*
X100425333Y-107037142D01*
X100425333Y-106894285D01*
X100472952Y-106799047D01*
X100520571Y-106751428D01*
X100615809Y-106703809D01*
X100996761Y-106703809D01*
X99996761Y-106227619D02*
X99996761Y-107227619D01*
X98949142Y-106322857D02*
X98996761Y-106275238D01*
X99139619Y-106227619D01*
X99234857Y-106227619D01*
X99377714Y-106275238D01*
X99472952Y-106370476D01*
X99520571Y-106465714D01*
X99568190Y-106656190D01*
X99568190Y-106799047D01*
X99520571Y-106989523D01*
X99472952Y-107084761D01*
X99377714Y-107180000D01*
X99234857Y-107227619D01*
X99139619Y-107227619D01*
X98996761Y-107180000D01*
X98949142Y-107132380D01*
X98330095Y-107227619D02*
X98139619Y-107227619D01*
X98044380Y-107180000D01*
X97949142Y-107084761D01*
X97901523Y-106894285D01*
X97901523Y-106560952D01*
X97949142Y-106370476D01*
X98044380Y-106275238D01*
X98139619Y-106227619D01*
X98330095Y-106227619D01*
X98425333Y-106275238D01*
X98520571Y-106370476D01*
X98568190Y-106560952D01*
X98568190Y-106894285D01*
X98520571Y-107084761D01*
X98425333Y-107180000D01*
X98330095Y-107227619D01*
X122555238Y-107132380D02*
X122221904Y-106656190D01*
X121983809Y-107132380D02*
X121983809Y-106132380D01*
X122364761Y-106132380D01*
X122460000Y-106180000D01*
X122507619Y-106227619D01*
X122555238Y-106322857D01*
X122555238Y-106465714D01*
X122507619Y-106560952D01*
X122460000Y-106608571D01*
X122364761Y-106656190D01*
X121983809Y-106656190D01*
X122983809Y-107132380D02*
X122983809Y-106132380D01*
X123364761Y-106132380D01*
X123460000Y-106180000D01*
X123507619Y-106227619D01*
X123555238Y-106322857D01*
X123555238Y-106465714D01*
X123507619Y-106560952D01*
X123460000Y-106608571D01*
X123364761Y-106656190D01*
X122983809Y-106656190D01*
X123983809Y-107132380D02*
X123983809Y-106132380D01*
X124364761Y-106132380D02*
X124983809Y-106132380D01*
X124650476Y-106513333D01*
X124793333Y-106513333D01*
X124888571Y-106560952D01*
X124936190Y-106608571D01*
X124983809Y-106703809D01*
X124983809Y-106941904D01*
X124936190Y-107037142D01*
X124888571Y-107084761D01*
X124793333Y-107132380D01*
X124507619Y-107132380D01*
X124412380Y-107084761D01*
X124364761Y-107037142D01*
X126126666Y-106084761D02*
X125269523Y-107370476D01*
X126888571Y-106465714D02*
X126888571Y-107132380D01*
X126650476Y-106084761D02*
X126412380Y-106799047D01*
X127031428Y-106799047D01*
X127793714Y-157932380D02*
X127222285Y-157932380D01*
X127508000Y-157932380D02*
X127508000Y-156932380D01*
X127412761Y-157075238D01*
X127317523Y-157170476D01*
X127222285Y-157218095D01*
X115093714Y-157932380D02*
X114522285Y-157932380D01*
X114808000Y-157932380D02*
X114808000Y-156932380D01*
X114712761Y-157075238D01*
X114617523Y-157170476D01*
X114522285Y-157218095D01*
X63063619Y-104084380D02*
X62730285Y-103608190D01*
X62492190Y-104084380D02*
X62492190Y-103084380D01*
X62873142Y-103084380D01*
X62968380Y-103132000D01*
X63016000Y-103179619D01*
X63063619Y-103274857D01*
X63063619Y-103417714D01*
X63016000Y-103512952D01*
X62968380Y-103560571D01*
X62873142Y-103608190D01*
X62492190Y-103608190D01*
X63492190Y-103560571D02*
X63825523Y-103560571D01*
X63968380Y-104084380D02*
X63492190Y-104084380D01*
X63492190Y-103084380D01*
X63968380Y-103084380D01*
X64349333Y-104036761D02*
X64492190Y-104084380D01*
X64730285Y-104084380D01*
X64825523Y-104036761D01*
X64873142Y-103989142D01*
X64920761Y-103893904D01*
X64920761Y-103798666D01*
X64873142Y-103703428D01*
X64825523Y-103655809D01*
X64730285Y-103608190D01*
X64539809Y-103560571D01*
X64444571Y-103512952D01*
X64396952Y-103465333D01*
X64349333Y-103370095D01*
X64349333Y-103274857D01*
X64396952Y-103179619D01*
X64444571Y-103132000D01*
X64539809Y-103084380D01*
X64777904Y-103084380D01*
X64920761Y-103132000D01*
X65349333Y-103560571D02*
X65682666Y-103560571D01*
X65825523Y-104084380D02*
X65349333Y-104084380D01*
X65349333Y-103084380D01*
X65825523Y-103084380D01*
X66111238Y-103084380D02*
X66682666Y-103084380D01*
X66396952Y-104084380D02*
X66396952Y-103084380D01*
X110407380Y-169489047D02*
X110407380Y-169965238D01*
X110883571Y-170012857D01*
X110835952Y-169965238D01*
X110788333Y-169870000D01*
X110788333Y-169631904D01*
X110835952Y-169536666D01*
X110883571Y-169489047D01*
X110978809Y-169441428D01*
X111216904Y-169441428D01*
X111312142Y-169489047D01*
X111359761Y-169536666D01*
X111407380Y-169631904D01*
X111407380Y-169870000D01*
X111359761Y-169965238D01*
X111312142Y-170012857D01*
X110407380Y-169155714D02*
X111407380Y-168822380D01*
X110407380Y-168489047D01*
X111359761Y-167441428D02*
X111407380Y-167298571D01*
X111407380Y-167060476D01*
X111359761Y-166965238D01*
X111312142Y-166917619D01*
X111216904Y-166870000D01*
X111121666Y-166870000D01*
X111026428Y-166917619D01*
X110978809Y-166965238D01*
X110931190Y-167060476D01*
X110883571Y-167250952D01*
X110835952Y-167346190D01*
X110788333Y-167393809D01*
X110693095Y-167441428D01*
X110597857Y-167441428D01*
X110502619Y-167393809D01*
X110455000Y-167346190D01*
X110407380Y-167250952D01*
X110407380Y-167012857D01*
X110455000Y-166870000D01*
X111407380Y-166298571D02*
X111359761Y-166393809D01*
X111312142Y-166441428D01*
X111216904Y-166489047D01*
X110931190Y-166489047D01*
X110835952Y-166441428D01*
X110788333Y-166393809D01*
X110740714Y-166298571D01*
X110740714Y-166155714D01*
X110788333Y-166060476D01*
X110835952Y-166012857D01*
X110931190Y-165965238D01*
X111216904Y-165965238D01*
X111312142Y-166012857D01*
X111359761Y-166060476D01*
X111407380Y-166155714D01*
X111407380Y-166298571D01*
X110740714Y-165108095D02*
X111407380Y-165108095D01*
X110740714Y-165536666D02*
X111264523Y-165536666D01*
X111359761Y-165489047D01*
X111407380Y-165393809D01*
X111407380Y-165250952D01*
X111359761Y-165155714D01*
X111312142Y-165108095D01*
X111407380Y-164631904D02*
X110740714Y-164631904D01*
X110931190Y-164631904D02*
X110835952Y-164584285D01*
X110788333Y-164536666D01*
X110740714Y-164441428D01*
X110740714Y-164346190D01*
X111359761Y-163584285D02*
X111407380Y-163679523D01*
X111407380Y-163870000D01*
X111359761Y-163965238D01*
X111312142Y-164012857D01*
X111216904Y-164060476D01*
X110931190Y-164060476D01*
X110835952Y-164012857D01*
X110788333Y-163965238D01*
X110740714Y-163870000D01*
X110740714Y-163679523D01*
X110788333Y-163584285D01*
X111359761Y-162774761D02*
X111407380Y-162870000D01*
X111407380Y-163060476D01*
X111359761Y-163155714D01*
X111264523Y-163203333D01*
X110883571Y-163203333D01*
X110788333Y-163155714D01*
X110740714Y-163060476D01*
X110740714Y-162870000D01*
X110788333Y-162774761D01*
X110883571Y-162727142D01*
X110978809Y-162727142D01*
X111074047Y-163203333D01*
X112969761Y-168489047D02*
X113017380Y-168346190D01*
X113017380Y-168108095D01*
X112969761Y-168012857D01*
X112922142Y-167965238D01*
X112826904Y-167917619D01*
X112731666Y-167917619D01*
X112636428Y-167965238D01*
X112588809Y-168012857D01*
X112541190Y-168108095D01*
X112493571Y-168298571D01*
X112445952Y-168393809D01*
X112398333Y-168441428D01*
X112303095Y-168489047D01*
X112207857Y-168489047D01*
X112112619Y-168441428D01*
X112065000Y-168393809D01*
X112017380Y-168298571D01*
X112017380Y-168060476D01*
X112065000Y-167917619D01*
X112969761Y-167108095D02*
X113017380Y-167203333D01*
X113017380Y-167393809D01*
X112969761Y-167489047D01*
X112874523Y-167536666D01*
X112493571Y-167536666D01*
X112398333Y-167489047D01*
X112350714Y-167393809D01*
X112350714Y-167203333D01*
X112398333Y-167108095D01*
X112493571Y-167060476D01*
X112588809Y-167060476D01*
X112684047Y-167536666D01*
X113017380Y-166489047D02*
X112969761Y-166584285D01*
X112874523Y-166631904D01*
X112017380Y-166631904D01*
X112969761Y-165727142D02*
X113017380Y-165822380D01*
X113017380Y-166012857D01*
X112969761Y-166108095D01*
X112874523Y-166155714D01*
X112493571Y-166155714D01*
X112398333Y-166108095D01*
X112350714Y-166012857D01*
X112350714Y-165822380D01*
X112398333Y-165727142D01*
X112493571Y-165679523D01*
X112588809Y-165679523D01*
X112684047Y-166155714D01*
X112969761Y-164822380D02*
X113017380Y-164917619D01*
X113017380Y-165108095D01*
X112969761Y-165203333D01*
X112922142Y-165250952D01*
X112826904Y-165298571D01*
X112541190Y-165298571D01*
X112445952Y-165250952D01*
X112398333Y-165203333D01*
X112350714Y-165108095D01*
X112350714Y-164917619D01*
X112398333Y-164822380D01*
X112350714Y-164536666D02*
X112350714Y-164155714D01*
X112017380Y-164393809D02*
X112874523Y-164393809D01*
X112969761Y-164346190D01*
X113017380Y-164250952D01*
X113017380Y-164155714D01*
X114379428Y-164028380D02*
X114046095Y-163552190D01*
X113808000Y-164028380D02*
X113808000Y-163028380D01*
X114188952Y-163028380D01*
X114284190Y-163076000D01*
X114331809Y-163123619D01*
X114379428Y-163218857D01*
X114379428Y-163361714D01*
X114331809Y-163456952D01*
X114284190Y-163504571D01*
X114188952Y-163552190D01*
X113808000Y-163552190D01*
X114808000Y-164028380D02*
X114808000Y-163028380D01*
X115188952Y-163028380D01*
X115284190Y-163076000D01*
X115331809Y-163123619D01*
X115379428Y-163218857D01*
X115379428Y-163361714D01*
X115331809Y-163456952D01*
X115284190Y-163504571D01*
X115188952Y-163552190D01*
X114808000Y-163552190D01*
X115808000Y-164028380D02*
X115808000Y-163028380D01*
X113284190Y-169616380D02*
X113284190Y-168616380D01*
X113665142Y-168616380D01*
X113760380Y-168664000D01*
X113808000Y-168711619D01*
X113855619Y-168806857D01*
X113855619Y-168949714D01*
X113808000Y-169044952D01*
X113760380Y-169092571D01*
X113665142Y-169140190D01*
X113284190Y-169140190D01*
X114284190Y-169616380D02*
X114284190Y-168616380D01*
X115331809Y-169521142D02*
X115284190Y-169568761D01*
X115141333Y-169616380D01*
X115046095Y-169616380D01*
X114903238Y-169568761D01*
X114808000Y-169473523D01*
X114760380Y-169378285D01*
X114712761Y-169187809D01*
X114712761Y-169044952D01*
X114760380Y-168854476D01*
X114808000Y-168759238D01*
X114903238Y-168664000D01*
X115046095Y-168616380D01*
X115141333Y-168616380D01*
X115284190Y-168664000D01*
X115331809Y-168711619D01*
X115950857Y-168616380D02*
X116141333Y-168616380D01*
X116236571Y-168664000D01*
X116331809Y-168759238D01*
X116379428Y-168949714D01*
X116379428Y-169283047D01*
X116331809Y-169473523D01*
X116236571Y-169568761D01*
X116141333Y-169616380D01*
X115950857Y-169616380D01*
X115855619Y-169568761D01*
X115760380Y-169473523D01*
X115712761Y-169283047D01*
X115712761Y-168949714D01*
X115760380Y-168759238D01*
X115855619Y-168664000D01*
X115950857Y-168616380D01*
X125373142Y-184078571D02*
X125706476Y-184078571D01*
X125849333Y-184602380D02*
X125373142Y-184602380D01*
X125373142Y-183602380D01*
X125849333Y-183602380D01*
X126182666Y-183602380D02*
X126849333Y-184602380D01*
X126849333Y-183602380D02*
X126182666Y-184602380D01*
X127230285Y-184602380D02*
X127230285Y-183602380D01*
X127611238Y-183602380D01*
X127706476Y-183650000D01*
X127754095Y-183697619D01*
X127801714Y-183792857D01*
X127801714Y-183935714D01*
X127754095Y-184030952D01*
X127706476Y-184078571D01*
X127611238Y-184126190D01*
X127230285Y-184126190D01*
X128182666Y-184316666D02*
X128658857Y-184316666D01*
X128087428Y-184602380D02*
X128420761Y-183602380D01*
X128754095Y-184602380D01*
X129087428Y-184602380D02*
X129087428Y-183602380D01*
X129658857Y-184602380D01*
X129658857Y-183602380D01*
X130135047Y-184602380D02*
X130135047Y-183602380D01*
X130373142Y-183602380D01*
X130516000Y-183650000D01*
X130611238Y-183745238D01*
X130658857Y-183840476D01*
X130706476Y-184030952D01*
X130706476Y-184173809D01*
X130658857Y-184364285D01*
X130611238Y-184459523D01*
X130516000Y-184554761D01*
X130373142Y-184602380D01*
X130135047Y-184602380D01*
X83931619Y-183051380D02*
X83931619Y-183860904D01*
X83979238Y-183956142D01*
X84026857Y-184003761D01*
X84122095Y-184051380D01*
X84312571Y-184051380D01*
X84407809Y-184003761D01*
X84455428Y-183956142D01*
X84503047Y-183860904D01*
X84503047Y-183051380D01*
X84931619Y-184003761D02*
X85074476Y-184051380D01*
X85312571Y-184051380D01*
X85407809Y-184003761D01*
X85455428Y-183956142D01*
X85503047Y-183860904D01*
X85503047Y-183765666D01*
X85455428Y-183670428D01*
X85407809Y-183622809D01*
X85312571Y-183575190D01*
X85122095Y-183527571D01*
X85026857Y-183479952D01*
X84979238Y-183432333D01*
X84931619Y-183337095D01*
X84931619Y-183241857D01*
X84979238Y-183146619D01*
X85026857Y-183099000D01*
X85122095Y-183051380D01*
X85360190Y-183051380D01*
X85503047Y-183099000D01*
X86264952Y-183527571D02*
X86407809Y-183575190D01*
X86455428Y-183622809D01*
X86503047Y-183718047D01*
X86503047Y-183860904D01*
X86455428Y-183956142D01*
X86407809Y-184003761D01*
X86312571Y-184051380D01*
X85931619Y-184051380D01*
X85931619Y-183051380D01*
X86264952Y-183051380D01*
X86360190Y-183099000D01*
X86407809Y-183146619D01*
X86455428Y-183241857D01*
X86455428Y-183337095D01*
X86407809Y-183432333D01*
X86360190Y-183479952D01*
X86264952Y-183527571D01*
X85931619Y-183527571D01*
X86931619Y-184051380D02*
X86931619Y-183051380D01*
X87312571Y-183051380D01*
X87407809Y-183099000D01*
X87455428Y-183146619D01*
X87503047Y-183241857D01*
X87503047Y-183384714D01*
X87455428Y-183479952D01*
X87407809Y-183527571D01*
X87312571Y-183575190D01*
X86931619Y-183575190D01*
X87836380Y-183051380D02*
X88074476Y-184051380D01*
X88264952Y-183337095D01*
X88455428Y-184051380D01*
X88693523Y-183051380D01*
X89645904Y-184051380D02*
X89312571Y-183575190D01*
X89074476Y-184051380D02*
X89074476Y-183051380D01*
X89455428Y-183051380D01*
X89550666Y-183099000D01*
X89598285Y-183146619D01*
X89645904Y-183241857D01*
X89645904Y-183384714D01*
X89598285Y-183479952D01*
X89550666Y-183527571D01*
X89455428Y-183575190D01*
X89074476Y-183575190D01*
X90693523Y-183384714D02*
X91074476Y-183384714D01*
X90836380Y-183051380D02*
X90836380Y-183908523D01*
X90884000Y-184003761D01*
X90979238Y-184051380D01*
X91074476Y-184051380D01*
X91550666Y-184051380D02*
X91455428Y-184003761D01*
X91407809Y-183956142D01*
X91360190Y-183860904D01*
X91360190Y-183575190D01*
X91407809Y-183479952D01*
X91455428Y-183432333D01*
X91550666Y-183384714D01*
X91693523Y-183384714D01*
X91788761Y-183432333D01*
X91836380Y-183479952D01*
X91884000Y-183575190D01*
X91884000Y-183860904D01*
X91836380Y-183956142D01*
X91788761Y-184003761D01*
X91693523Y-184051380D01*
X91550666Y-184051380D01*
X86931619Y-185137571D02*
X87074476Y-185185190D01*
X87122095Y-185232809D01*
X87169714Y-185328047D01*
X87169714Y-185470904D01*
X87122095Y-185566142D01*
X87074476Y-185613761D01*
X86979238Y-185661380D01*
X86598285Y-185661380D01*
X86598285Y-184661380D01*
X86931619Y-184661380D01*
X87026857Y-184709000D01*
X87074476Y-184756619D01*
X87122095Y-184851857D01*
X87122095Y-184947095D01*
X87074476Y-185042333D01*
X87026857Y-185089952D01*
X86931619Y-185137571D01*
X86598285Y-185137571D01*
X87788761Y-184661380D02*
X87979238Y-184661380D01*
X88074476Y-184709000D01*
X88169714Y-184804238D01*
X88217333Y-184994714D01*
X88217333Y-185328047D01*
X88169714Y-185518523D01*
X88074476Y-185613761D01*
X87979238Y-185661380D01*
X87788761Y-185661380D01*
X87693523Y-185613761D01*
X87598285Y-185518523D01*
X87550666Y-185328047D01*
X87550666Y-184994714D01*
X87598285Y-184804238D01*
X87693523Y-184709000D01*
X87788761Y-184661380D01*
X88979238Y-185137571D02*
X89122095Y-185185190D01*
X89169714Y-185232809D01*
X89217333Y-185328047D01*
X89217333Y-185470904D01*
X89169714Y-185566142D01*
X89122095Y-185613761D01*
X89026857Y-185661380D01*
X88645904Y-185661380D01*
X88645904Y-184661380D01*
X88979238Y-184661380D01*
X89074476Y-184709000D01*
X89122095Y-184756619D01*
X89169714Y-184851857D01*
X89169714Y-184947095D01*
X89122095Y-185042333D01*
X89074476Y-185089952D01*
X88979238Y-185137571D01*
X88645904Y-185137571D01*
X113752380Y-181816190D02*
X113752380Y-181197142D01*
X114133333Y-181530476D01*
X114133333Y-181387619D01*
X114180952Y-181292380D01*
X114228571Y-181244761D01*
X114323809Y-181197142D01*
X114561904Y-181197142D01*
X114657142Y-181244761D01*
X114704761Y-181292380D01*
X114752380Y-181387619D01*
X114752380Y-181673333D01*
X114704761Y-181768571D01*
X114657142Y-181816190D01*
X114657142Y-180768571D02*
X114704761Y-180720952D01*
X114752380Y-180768571D01*
X114704761Y-180816190D01*
X114657142Y-180768571D01*
X114752380Y-180768571D01*
X113752380Y-180387619D02*
X113752380Y-179768571D01*
X114133333Y-180101904D01*
X114133333Y-179959047D01*
X114180952Y-179863809D01*
X114228571Y-179816190D01*
X114323809Y-179768571D01*
X114561904Y-179768571D01*
X114657142Y-179816190D01*
X114704761Y-179863809D01*
X114752380Y-179959047D01*
X114752380Y-180244761D01*
X114704761Y-180340000D01*
X114657142Y-180387619D01*
X113752380Y-179482857D02*
X114752380Y-179149523D01*
X113752380Y-178816190D01*
X119784761Y-181530476D02*
X119832380Y-181387619D01*
X119832380Y-181149523D01*
X119784761Y-181054285D01*
X119737142Y-181006666D01*
X119641904Y-180959047D01*
X119546666Y-180959047D01*
X119451428Y-181006666D01*
X119403809Y-181054285D01*
X119356190Y-181149523D01*
X119308571Y-181340000D01*
X119260952Y-181435238D01*
X119213333Y-181482857D01*
X119118095Y-181530476D01*
X119022857Y-181530476D01*
X118927619Y-181482857D01*
X118880000Y-181435238D01*
X118832380Y-181340000D01*
X118832380Y-181101904D01*
X118880000Y-180959047D01*
X119737142Y-179959047D02*
X119784761Y-180006666D01*
X119832380Y-180149523D01*
X119832380Y-180244761D01*
X119784761Y-180387619D01*
X119689523Y-180482857D01*
X119594285Y-180530476D01*
X119403809Y-180578095D01*
X119260952Y-180578095D01*
X119070476Y-180530476D01*
X118975238Y-180482857D01*
X118880000Y-180387619D01*
X118832380Y-180244761D01*
X118832380Y-180149523D01*
X118880000Y-180006666D01*
X118927619Y-179959047D01*
X119832380Y-179054285D02*
X119832380Y-179530476D01*
X118832380Y-179530476D01*
X111212380Y-180530476D02*
X111212380Y-181006666D01*
X111688571Y-181054285D01*
X111640952Y-181006666D01*
X111593333Y-180911428D01*
X111593333Y-180673333D01*
X111640952Y-180578095D01*
X111688571Y-180530476D01*
X111783809Y-180482857D01*
X112021904Y-180482857D01*
X112117142Y-180530476D01*
X112164761Y-180578095D01*
X112212380Y-180673333D01*
X112212380Y-180911428D01*
X112164761Y-181006666D01*
X112117142Y-181054285D01*
X111212380Y-180197142D02*
X112212380Y-179863809D01*
X111212380Y-179530476D01*
X117244761Y-181554285D02*
X117292380Y-181411428D01*
X117292380Y-181173333D01*
X117244761Y-181078095D01*
X117197142Y-181030476D01*
X117101904Y-180982857D01*
X117006666Y-180982857D01*
X116911428Y-181030476D01*
X116863809Y-181078095D01*
X116816190Y-181173333D01*
X116768571Y-181363809D01*
X116720952Y-181459047D01*
X116673333Y-181506666D01*
X116578095Y-181554285D01*
X116482857Y-181554285D01*
X116387619Y-181506666D01*
X116340000Y-181459047D01*
X116292380Y-181363809D01*
X116292380Y-181125714D01*
X116340000Y-180982857D01*
X117292380Y-180554285D02*
X116292380Y-180554285D01*
X116292380Y-180316190D01*
X116340000Y-180173333D01*
X116435238Y-180078095D01*
X116530476Y-180030476D01*
X116720952Y-179982857D01*
X116863809Y-179982857D01*
X117054285Y-180030476D01*
X117149523Y-180078095D01*
X117244761Y-180173333D01*
X117292380Y-180316190D01*
X117292380Y-180554285D01*
X117006666Y-179601904D02*
X117006666Y-179125714D01*
X117292380Y-179697142D02*
X116292380Y-179363809D01*
X117292380Y-179030476D01*
X123960000Y-181101904D02*
X123912380Y-181197142D01*
X123912380Y-181340000D01*
X123960000Y-181482857D01*
X124055238Y-181578095D01*
X124150476Y-181625714D01*
X124340952Y-181673333D01*
X124483809Y-181673333D01*
X124674285Y-181625714D01*
X124769523Y-181578095D01*
X124864761Y-181482857D01*
X124912380Y-181340000D01*
X124912380Y-181244761D01*
X124864761Y-181101904D01*
X124817142Y-181054285D01*
X124483809Y-181054285D01*
X124483809Y-181244761D01*
X124912380Y-180625714D02*
X123912380Y-180625714D01*
X124912380Y-180054285D01*
X123912380Y-180054285D01*
X124912380Y-179578095D02*
X123912380Y-179578095D01*
X123912380Y-179340000D01*
X123960000Y-179197142D01*
X124055238Y-179101904D01*
X124150476Y-179054285D01*
X124340952Y-179006666D01*
X124483809Y-179006666D01*
X124674285Y-179054285D01*
X124769523Y-179101904D01*
X124864761Y-179197142D01*
X124912380Y-179340000D01*
X124912380Y-179578095D01*
X122372380Y-181840000D02*
X121372380Y-181840000D01*
X121848571Y-181840000D02*
X121848571Y-181268571D01*
X122372380Y-181268571D02*
X121372380Y-181268571D01*
X122086666Y-180840000D02*
X122086666Y-180363809D01*
X122372380Y-180935238D02*
X121372380Y-180601904D01*
X122372380Y-180268571D01*
X122372380Y-179459047D02*
X122372380Y-179935238D01*
X121372380Y-179935238D01*
X121372380Y-179268571D02*
X121372380Y-178697142D01*
X122372380Y-178982857D02*
X121372380Y-178982857D01*
%TO.C,R7*%
X90876380Y-115990666D02*
X90400190Y-116324000D01*
X90876380Y-116562095D02*
X89876380Y-116562095D01*
X89876380Y-116181142D01*
X89924000Y-116085904D01*
X89971619Y-116038285D01*
X90066857Y-115990666D01*
X90209714Y-115990666D01*
X90304952Y-116038285D01*
X90352571Y-116085904D01*
X90400190Y-116181142D01*
X90400190Y-116562095D01*
X89876380Y-115657333D02*
X89876380Y-114990666D01*
X90876380Y-115419238D01*
%TO.C,R70*%
X65984380Y-117990857D02*
X65508190Y-118324190D01*
X65984380Y-118562285D02*
X64984380Y-118562285D01*
X64984380Y-118181333D01*
X65032000Y-118086095D01*
X65079619Y-118038476D01*
X65174857Y-117990857D01*
X65317714Y-117990857D01*
X65412952Y-118038476D01*
X65460571Y-118086095D01*
X65508190Y-118181333D01*
X65508190Y-118562285D01*
X64984380Y-117657523D02*
X64984380Y-116990857D01*
X65984380Y-117419428D01*
X64984380Y-116419428D02*
X64984380Y-116324190D01*
X65032000Y-116228952D01*
X65079619Y-116181333D01*
X65174857Y-116133714D01*
X65365333Y-116086095D01*
X65603428Y-116086095D01*
X65793904Y-116133714D01*
X65889142Y-116181333D01*
X65936761Y-116228952D01*
X65984380Y-116324190D01*
X65984380Y-116419428D01*
X65936761Y-116514666D01*
X65889142Y-116562285D01*
X65793904Y-116609904D01*
X65603428Y-116657523D01*
X65365333Y-116657523D01*
X65174857Y-116609904D01*
X65079619Y-116562285D01*
X65032000Y-116514666D01*
X64984380Y-116419428D01*
%TO.C,R65*%
X70556380Y-109862857D02*
X70080190Y-110196190D01*
X70556380Y-110434285D02*
X69556380Y-110434285D01*
X69556380Y-110053333D01*
X69604000Y-109958095D01*
X69651619Y-109910476D01*
X69746857Y-109862857D01*
X69889714Y-109862857D01*
X69984952Y-109910476D01*
X70032571Y-109958095D01*
X70080190Y-110053333D01*
X70080190Y-110434285D01*
X69556380Y-109005714D02*
X69556380Y-109196190D01*
X69604000Y-109291428D01*
X69651619Y-109339047D01*
X69794476Y-109434285D01*
X69984952Y-109481904D01*
X70365904Y-109481904D01*
X70461142Y-109434285D01*
X70508761Y-109386666D01*
X70556380Y-109291428D01*
X70556380Y-109100952D01*
X70508761Y-109005714D01*
X70461142Y-108958095D01*
X70365904Y-108910476D01*
X70127809Y-108910476D01*
X70032571Y-108958095D01*
X69984952Y-109005714D01*
X69937333Y-109100952D01*
X69937333Y-109291428D01*
X69984952Y-109386666D01*
X70032571Y-109434285D01*
X70127809Y-109481904D01*
X69556380Y-108005714D02*
X69556380Y-108481904D01*
X70032571Y-108529523D01*
X69984952Y-108481904D01*
X69937333Y-108386666D01*
X69937333Y-108148571D01*
X69984952Y-108053333D01*
X70032571Y-108005714D01*
X70127809Y-107958095D01*
X70365904Y-107958095D01*
X70461142Y-108005714D01*
X70508761Y-108053333D01*
X70556380Y-108148571D01*
X70556380Y-108386666D01*
X70508761Y-108481904D01*
X70461142Y-108529523D01*
%TO.C,C50*%
X71493142Y-120753142D02*
X71445523Y-120800761D01*
X71302666Y-120848380D01*
X71207428Y-120848380D01*
X71064571Y-120800761D01*
X70969333Y-120705523D01*
X70921714Y-120610285D01*
X70874095Y-120419809D01*
X70874095Y-120276952D01*
X70921714Y-120086476D01*
X70969333Y-119991238D01*
X71064571Y-119896000D01*
X71207428Y-119848380D01*
X71302666Y-119848380D01*
X71445523Y-119896000D01*
X71493142Y-119943619D01*
X72397904Y-119848380D02*
X71921714Y-119848380D01*
X71874095Y-120324571D01*
X71921714Y-120276952D01*
X72016952Y-120229333D01*
X72255047Y-120229333D01*
X72350285Y-120276952D01*
X72397904Y-120324571D01*
X72445523Y-120419809D01*
X72445523Y-120657904D01*
X72397904Y-120753142D01*
X72350285Y-120800761D01*
X72255047Y-120848380D01*
X72016952Y-120848380D01*
X71921714Y-120800761D01*
X71874095Y-120753142D01*
X73064571Y-119848380D02*
X73159809Y-119848380D01*
X73255047Y-119896000D01*
X73302666Y-119943619D01*
X73350285Y-120038857D01*
X73397904Y-120229333D01*
X73397904Y-120467428D01*
X73350285Y-120657904D01*
X73302666Y-120753142D01*
X73255047Y-120800761D01*
X73159809Y-120848380D01*
X73064571Y-120848380D01*
X72969333Y-120800761D01*
X72921714Y-120753142D01*
X72874095Y-120657904D01*
X72826476Y-120467428D01*
X72826476Y-120229333D01*
X72874095Y-120038857D01*
X72921714Y-119943619D01*
X72969333Y-119896000D01*
X73064571Y-119848380D01*
%TO.C,R74*%
X70556380Y-128150857D02*
X70080190Y-128484190D01*
X70556380Y-128722285D02*
X69556380Y-128722285D01*
X69556380Y-128341333D01*
X69604000Y-128246095D01*
X69651619Y-128198476D01*
X69746857Y-128150857D01*
X69889714Y-128150857D01*
X69984952Y-128198476D01*
X70032571Y-128246095D01*
X70080190Y-128341333D01*
X70080190Y-128722285D01*
X69556380Y-127817523D02*
X69556380Y-127150857D01*
X70556380Y-127579428D01*
X69889714Y-126341333D02*
X70556380Y-126341333D01*
X69508761Y-126579428D02*
X70223047Y-126817523D01*
X70223047Y-126198476D01*
%TO.C,C53*%
X88241142Y-129674857D02*
X88288761Y-129722476D01*
X88336380Y-129865333D01*
X88336380Y-129960571D01*
X88288761Y-130103428D01*
X88193523Y-130198666D01*
X88098285Y-130246285D01*
X87907809Y-130293904D01*
X87764952Y-130293904D01*
X87574476Y-130246285D01*
X87479238Y-130198666D01*
X87384000Y-130103428D01*
X87336380Y-129960571D01*
X87336380Y-129865333D01*
X87384000Y-129722476D01*
X87431619Y-129674857D01*
X87336380Y-128770095D02*
X87336380Y-129246285D01*
X87812571Y-129293904D01*
X87764952Y-129246285D01*
X87717333Y-129151047D01*
X87717333Y-128912952D01*
X87764952Y-128817714D01*
X87812571Y-128770095D01*
X87907809Y-128722476D01*
X88145904Y-128722476D01*
X88241142Y-128770095D01*
X88288761Y-128817714D01*
X88336380Y-128912952D01*
X88336380Y-129151047D01*
X88288761Y-129246285D01*
X88241142Y-129293904D01*
X87336380Y-128389142D02*
X87336380Y-127770095D01*
X87717333Y-128103428D01*
X87717333Y-127960571D01*
X87764952Y-127865333D01*
X87812571Y-127817714D01*
X87907809Y-127770095D01*
X88145904Y-127770095D01*
X88241142Y-127817714D01*
X88288761Y-127865333D01*
X88336380Y-127960571D01*
X88336380Y-128246285D01*
X88288761Y-128341523D01*
X88241142Y-128389142D01*
%TO.C,J1*%
X64112380Y-141193333D02*
X64826666Y-141193333D01*
X64969523Y-141240952D01*
X65064761Y-141336190D01*
X65112380Y-141479047D01*
X65112380Y-141574285D01*
X65112380Y-140193333D02*
X65112380Y-140764761D01*
X65112380Y-140479047D02*
X64112380Y-140479047D01*
X64255238Y-140574285D01*
X64350476Y-140669523D01*
X64398095Y-140764761D01*
%TO.C,C20*%
X85701142Y-116466857D02*
X85748761Y-116514476D01*
X85796380Y-116657333D01*
X85796380Y-116752571D01*
X85748761Y-116895428D01*
X85653523Y-116990666D01*
X85558285Y-117038285D01*
X85367809Y-117085904D01*
X85224952Y-117085904D01*
X85034476Y-117038285D01*
X84939238Y-116990666D01*
X84844000Y-116895428D01*
X84796380Y-116752571D01*
X84796380Y-116657333D01*
X84844000Y-116514476D01*
X84891619Y-116466857D01*
X84891619Y-116085904D02*
X84844000Y-116038285D01*
X84796380Y-115943047D01*
X84796380Y-115704952D01*
X84844000Y-115609714D01*
X84891619Y-115562095D01*
X84986857Y-115514476D01*
X85082095Y-115514476D01*
X85224952Y-115562095D01*
X85796380Y-116133523D01*
X85796380Y-115514476D01*
X84796380Y-114895428D02*
X84796380Y-114800190D01*
X84844000Y-114704952D01*
X84891619Y-114657333D01*
X84986857Y-114609714D01*
X85177333Y-114562095D01*
X85415428Y-114562095D01*
X85605904Y-114609714D01*
X85701142Y-114657333D01*
X85748761Y-114704952D01*
X85796380Y-114800190D01*
X85796380Y-114895428D01*
X85748761Y-114990666D01*
X85701142Y-115038285D01*
X85605904Y-115085904D01*
X85415428Y-115133523D01*
X85177333Y-115133523D01*
X84986857Y-115085904D01*
X84891619Y-115038285D01*
X84844000Y-114990666D01*
X84796380Y-114895428D01*
%TO.C,R10*%
X117467142Y-177744380D02*
X117133809Y-177268190D01*
X116895714Y-177744380D02*
X116895714Y-176744380D01*
X117276666Y-176744380D01*
X117371904Y-176792000D01*
X117419523Y-176839619D01*
X117467142Y-176934857D01*
X117467142Y-177077714D01*
X117419523Y-177172952D01*
X117371904Y-177220571D01*
X117276666Y-177268190D01*
X116895714Y-177268190D01*
X118419523Y-177744380D02*
X117848095Y-177744380D01*
X118133809Y-177744380D02*
X118133809Y-176744380D01*
X118038571Y-176887238D01*
X117943333Y-176982476D01*
X117848095Y-177030095D01*
X119038571Y-176744380D02*
X119133809Y-176744380D01*
X119229047Y-176792000D01*
X119276666Y-176839619D01*
X119324285Y-176934857D01*
X119371904Y-177125333D01*
X119371904Y-177363428D01*
X119324285Y-177553904D01*
X119276666Y-177649142D01*
X119229047Y-177696761D01*
X119133809Y-177744380D01*
X119038571Y-177744380D01*
X118943333Y-177696761D01*
X118895714Y-177649142D01*
X118848095Y-177553904D01*
X118800476Y-177363428D01*
X118800476Y-177125333D01*
X118848095Y-176934857D01*
X118895714Y-176839619D01*
X118943333Y-176792000D01*
X119038571Y-176744380D01*
%TO.C,SW1*%
X70346666Y-100004761D02*
X70489523Y-100052380D01*
X70727619Y-100052380D01*
X70822857Y-100004761D01*
X70870476Y-99957142D01*
X70918095Y-99861904D01*
X70918095Y-99766666D01*
X70870476Y-99671428D01*
X70822857Y-99623809D01*
X70727619Y-99576190D01*
X70537142Y-99528571D01*
X70441904Y-99480952D01*
X70394285Y-99433333D01*
X70346666Y-99338095D01*
X70346666Y-99242857D01*
X70394285Y-99147619D01*
X70441904Y-99100000D01*
X70537142Y-99052380D01*
X70775238Y-99052380D01*
X70918095Y-99100000D01*
X71251428Y-99052380D02*
X71489523Y-100052380D01*
X71680000Y-99338095D01*
X71870476Y-100052380D01*
X72108571Y-99052380D01*
X73013333Y-100052380D02*
X72441904Y-100052380D01*
X72727619Y-100052380D02*
X72727619Y-99052380D01*
X72632380Y-99195238D01*
X72537142Y-99290476D01*
X72441904Y-99338095D01*
%TO.C,R73*%
X68016380Y-128150857D02*
X67540190Y-128484190D01*
X68016380Y-128722285D02*
X67016380Y-128722285D01*
X67016380Y-128341333D01*
X67064000Y-128246095D01*
X67111619Y-128198476D01*
X67206857Y-128150857D01*
X67349714Y-128150857D01*
X67444952Y-128198476D01*
X67492571Y-128246095D01*
X67540190Y-128341333D01*
X67540190Y-128722285D01*
X67016380Y-127817523D02*
X67016380Y-127150857D01*
X68016380Y-127579428D01*
X67016380Y-126865142D02*
X67016380Y-126246095D01*
X67397333Y-126579428D01*
X67397333Y-126436571D01*
X67444952Y-126341333D01*
X67492571Y-126293714D01*
X67587809Y-126246095D01*
X67825904Y-126246095D01*
X67921142Y-126293714D01*
X67968761Y-126341333D01*
X68016380Y-126436571D01*
X68016380Y-126722285D01*
X67968761Y-126817523D01*
X67921142Y-126865142D01*
%TO.C,J40*%
X98250476Y-169972380D02*
X98250476Y-170686666D01*
X98202857Y-170829523D01*
X98107619Y-170924761D01*
X97964761Y-170972380D01*
X97869523Y-170972380D01*
X99155238Y-170305714D02*
X99155238Y-170972380D01*
X98917142Y-169924761D02*
X98679047Y-170639047D01*
X99298095Y-170639047D01*
X99869523Y-169972380D02*
X99964761Y-169972380D01*
X100060000Y-170020000D01*
X100107619Y-170067619D01*
X100155238Y-170162857D01*
X100202857Y-170353333D01*
X100202857Y-170591428D01*
X100155238Y-170781904D01*
X100107619Y-170877142D01*
X100060000Y-170924761D01*
X99964761Y-170972380D01*
X99869523Y-170972380D01*
X99774285Y-170924761D01*
X99726666Y-170877142D01*
X99679047Y-170781904D01*
X99631428Y-170591428D01*
X99631428Y-170353333D01*
X99679047Y-170162857D01*
X99726666Y-170067619D01*
X99774285Y-170020000D01*
X99869523Y-169972380D01*
%TO.C,R66*%
X67508380Y-109862857D02*
X67032190Y-110196190D01*
X67508380Y-110434285D02*
X66508380Y-110434285D01*
X66508380Y-110053333D01*
X66556000Y-109958095D01*
X66603619Y-109910476D01*
X66698857Y-109862857D01*
X66841714Y-109862857D01*
X66936952Y-109910476D01*
X66984571Y-109958095D01*
X67032190Y-110053333D01*
X67032190Y-110434285D01*
X66508380Y-109005714D02*
X66508380Y-109196190D01*
X66556000Y-109291428D01*
X66603619Y-109339047D01*
X66746476Y-109434285D01*
X66936952Y-109481904D01*
X67317904Y-109481904D01*
X67413142Y-109434285D01*
X67460761Y-109386666D01*
X67508380Y-109291428D01*
X67508380Y-109100952D01*
X67460761Y-109005714D01*
X67413142Y-108958095D01*
X67317904Y-108910476D01*
X67079809Y-108910476D01*
X66984571Y-108958095D01*
X66936952Y-109005714D01*
X66889333Y-109100952D01*
X66889333Y-109291428D01*
X66936952Y-109386666D01*
X66984571Y-109434285D01*
X67079809Y-109481904D01*
X66508380Y-108053333D02*
X66508380Y-108243809D01*
X66556000Y-108339047D01*
X66603619Y-108386666D01*
X66746476Y-108481904D01*
X66936952Y-108529523D01*
X67317904Y-108529523D01*
X67413142Y-108481904D01*
X67460761Y-108434285D01*
X67508380Y-108339047D01*
X67508380Y-108148571D01*
X67460761Y-108053333D01*
X67413142Y-108005714D01*
X67317904Y-107958095D01*
X67079809Y-107958095D01*
X66984571Y-108005714D01*
X66936952Y-108053333D01*
X66889333Y-108148571D01*
X66889333Y-108339047D01*
X66936952Y-108434285D01*
X66984571Y-108481904D01*
X67079809Y-108529523D01*
%TO.C,J32*%
X117554476Y-170648380D02*
X117554476Y-171362666D01*
X117506857Y-171505523D01*
X117411619Y-171600761D01*
X117268761Y-171648380D01*
X117173523Y-171648380D01*
X117935428Y-170648380D02*
X118554476Y-170648380D01*
X118221142Y-171029333D01*
X118364000Y-171029333D01*
X118459238Y-171076952D01*
X118506857Y-171124571D01*
X118554476Y-171219809D01*
X118554476Y-171457904D01*
X118506857Y-171553142D01*
X118459238Y-171600761D01*
X118364000Y-171648380D01*
X118078285Y-171648380D01*
X117983047Y-171600761D01*
X117935428Y-171553142D01*
X118935428Y-170743619D02*
X118983047Y-170696000D01*
X119078285Y-170648380D01*
X119316380Y-170648380D01*
X119411619Y-170696000D01*
X119459238Y-170743619D01*
X119506857Y-170838857D01*
X119506857Y-170934095D01*
X119459238Y-171076952D01*
X118887809Y-171648380D01*
X119506857Y-171648380D01*
%TO.C,J30*%
X123650476Y-170902380D02*
X123650476Y-171616666D01*
X123602857Y-171759523D01*
X123507619Y-171854761D01*
X123364761Y-171902380D01*
X123269523Y-171902380D01*
X124031428Y-170902380D02*
X124650476Y-170902380D01*
X124317142Y-171283333D01*
X124460000Y-171283333D01*
X124555238Y-171330952D01*
X124602857Y-171378571D01*
X124650476Y-171473809D01*
X124650476Y-171711904D01*
X124602857Y-171807142D01*
X124555238Y-171854761D01*
X124460000Y-171902380D01*
X124174285Y-171902380D01*
X124079047Y-171854761D01*
X124031428Y-171807142D01*
X125269523Y-170902380D02*
X125364761Y-170902380D01*
X125460000Y-170950000D01*
X125507619Y-170997619D01*
X125555238Y-171092857D01*
X125602857Y-171283333D01*
X125602857Y-171521428D01*
X125555238Y-171711904D01*
X125507619Y-171807142D01*
X125460000Y-171854761D01*
X125364761Y-171902380D01*
X125269523Y-171902380D01*
X125174285Y-171854761D01*
X125126666Y-171807142D01*
X125079047Y-171711904D01*
X125031428Y-171521428D01*
X125031428Y-171283333D01*
X125079047Y-171092857D01*
X125126666Y-170997619D01*
X125174285Y-170950000D01*
X125269523Y-170902380D01*
%TO.C,J2*%
X107612380Y-184483333D02*
X108326666Y-184483333D01*
X108469523Y-184530952D01*
X108564761Y-184626190D01*
X108612380Y-184769047D01*
X108612380Y-184864285D01*
X107707619Y-184054761D02*
X107660000Y-184007142D01*
X107612380Y-183911904D01*
X107612380Y-183673809D01*
X107660000Y-183578571D01*
X107707619Y-183530952D01*
X107802857Y-183483333D01*
X107898095Y-183483333D01*
X108040952Y-183530952D01*
X108612380Y-184102380D01*
X108612380Y-183483333D01*
%TO.C,U18*%
X77501904Y-109882380D02*
X77501904Y-110691904D01*
X77549523Y-110787142D01*
X77597142Y-110834761D01*
X77692380Y-110882380D01*
X77882857Y-110882380D01*
X77978095Y-110834761D01*
X78025714Y-110787142D01*
X78073333Y-110691904D01*
X78073333Y-109882380D01*
X79073333Y-110882380D02*
X78501904Y-110882380D01*
X78787619Y-110882380D02*
X78787619Y-109882380D01*
X78692380Y-110025238D01*
X78597142Y-110120476D01*
X78501904Y-110168095D01*
X79644761Y-110310952D02*
X79549523Y-110263333D01*
X79501904Y-110215714D01*
X79454285Y-110120476D01*
X79454285Y-110072857D01*
X79501904Y-109977619D01*
X79549523Y-109930000D01*
X79644761Y-109882380D01*
X79835238Y-109882380D01*
X79930476Y-109930000D01*
X79978095Y-109977619D01*
X80025714Y-110072857D01*
X80025714Y-110120476D01*
X79978095Y-110215714D01*
X79930476Y-110263333D01*
X79835238Y-110310952D01*
X79644761Y-110310952D01*
X79549523Y-110358571D01*
X79501904Y-110406190D01*
X79454285Y-110501428D01*
X79454285Y-110691904D01*
X79501904Y-110787142D01*
X79549523Y-110834761D01*
X79644761Y-110882380D01*
X79835238Y-110882380D01*
X79930476Y-110834761D01*
X79978095Y-110787142D01*
X80025714Y-110691904D01*
X80025714Y-110501428D01*
X79978095Y-110406190D01*
X79930476Y-110358571D01*
X79835238Y-110310952D01*
%TO.C,U30*%
X117570095Y-107227619D02*
X117570095Y-106418095D01*
X117522476Y-106322857D01*
X117474857Y-106275238D01*
X117379619Y-106227619D01*
X117189142Y-106227619D01*
X117093904Y-106275238D01*
X117046285Y-106322857D01*
X116998666Y-106418095D01*
X116998666Y-107227619D01*
X116617714Y-107227619D02*
X115998666Y-107227619D01*
X116332000Y-106846666D01*
X116189142Y-106846666D01*
X116093904Y-106799047D01*
X116046285Y-106751428D01*
X115998666Y-106656190D01*
X115998666Y-106418095D01*
X116046285Y-106322857D01*
X116093904Y-106275238D01*
X116189142Y-106227619D01*
X116474857Y-106227619D01*
X116570095Y-106275238D01*
X116617714Y-106322857D01*
X115379619Y-107227619D02*
X115284380Y-107227619D01*
X115189142Y-107180000D01*
X115141523Y-107132380D01*
X115093904Y-107037142D01*
X115046285Y-106846666D01*
X115046285Y-106608571D01*
X115093904Y-106418095D01*
X115141523Y-106322857D01*
X115189142Y-106275238D01*
X115284380Y-106227619D01*
X115379619Y-106227619D01*
X115474857Y-106275238D01*
X115522476Y-106322857D01*
X115570095Y-106418095D01*
X115617714Y-106608571D01*
X115617714Y-106846666D01*
X115570095Y-107037142D01*
X115522476Y-107132380D01*
X115474857Y-107180000D01*
X115379619Y-107227619D01*
%TO.C,C51*%
X72493142Y-128150857D02*
X72540761Y-128198476D01*
X72588380Y-128341333D01*
X72588380Y-128436571D01*
X72540761Y-128579428D01*
X72445523Y-128674666D01*
X72350285Y-128722285D01*
X72159809Y-128769904D01*
X72016952Y-128769904D01*
X71826476Y-128722285D01*
X71731238Y-128674666D01*
X71636000Y-128579428D01*
X71588380Y-128436571D01*
X71588380Y-128341333D01*
X71636000Y-128198476D01*
X71683619Y-128150857D01*
X71588380Y-127246095D02*
X71588380Y-127722285D01*
X72064571Y-127769904D01*
X72016952Y-127722285D01*
X71969333Y-127627047D01*
X71969333Y-127388952D01*
X72016952Y-127293714D01*
X72064571Y-127246095D01*
X72159809Y-127198476D01*
X72397904Y-127198476D01*
X72493142Y-127246095D01*
X72540761Y-127293714D01*
X72588380Y-127388952D01*
X72588380Y-127627047D01*
X72540761Y-127722285D01*
X72493142Y-127769904D01*
X72588380Y-126246095D02*
X72588380Y-126817523D01*
X72588380Y-126531809D02*
X71588380Y-126531809D01*
X71731238Y-126627047D01*
X71826476Y-126722285D01*
X71874095Y-126817523D01*
%TO.C,R9*%
X88336380Y-115990666D02*
X87860190Y-116324000D01*
X88336380Y-116562095D02*
X87336380Y-116562095D01*
X87336380Y-116181142D01*
X87384000Y-116085904D01*
X87431619Y-116038285D01*
X87526857Y-115990666D01*
X87669714Y-115990666D01*
X87764952Y-116038285D01*
X87812571Y-116085904D01*
X87860190Y-116181142D01*
X87860190Y-116562095D01*
X88336380Y-115514476D02*
X88336380Y-115324000D01*
X88288761Y-115228761D01*
X88241142Y-115181142D01*
X88098285Y-115085904D01*
X87907809Y-115038285D01*
X87526857Y-115038285D01*
X87431619Y-115085904D01*
X87384000Y-115133523D01*
X87336380Y-115228761D01*
X87336380Y-115419238D01*
X87384000Y-115514476D01*
X87431619Y-115562095D01*
X87526857Y-115609714D01*
X87764952Y-115609714D01*
X87860190Y-115562095D01*
X87907809Y-115514476D01*
X87955428Y-115419238D01*
X87955428Y-115228761D01*
X87907809Y-115133523D01*
X87860190Y-115085904D01*
X87764952Y-115038285D01*
%TO.C,C48*%
X88241142Y-113402857D02*
X88288761Y-113450476D01*
X88336380Y-113593333D01*
X88336380Y-113688571D01*
X88288761Y-113831428D01*
X88193523Y-113926666D01*
X88098285Y-113974285D01*
X87907809Y-114021904D01*
X87764952Y-114021904D01*
X87574476Y-113974285D01*
X87479238Y-113926666D01*
X87384000Y-113831428D01*
X87336380Y-113688571D01*
X87336380Y-113593333D01*
X87384000Y-113450476D01*
X87431619Y-113402857D01*
X87669714Y-112545714D02*
X88336380Y-112545714D01*
X87288761Y-112783809D02*
X88003047Y-113021904D01*
X88003047Y-112402857D01*
X87764952Y-111879047D02*
X87717333Y-111974285D01*
X87669714Y-112021904D01*
X87574476Y-112069523D01*
X87526857Y-112069523D01*
X87431619Y-112021904D01*
X87384000Y-111974285D01*
X87336380Y-111879047D01*
X87336380Y-111688571D01*
X87384000Y-111593333D01*
X87431619Y-111545714D01*
X87526857Y-111498095D01*
X87574476Y-111498095D01*
X87669714Y-111545714D01*
X87717333Y-111593333D01*
X87764952Y-111688571D01*
X87764952Y-111879047D01*
X87812571Y-111974285D01*
X87860190Y-112021904D01*
X87955428Y-112069523D01*
X88145904Y-112069523D01*
X88241142Y-112021904D01*
X88288761Y-111974285D01*
X88336380Y-111879047D01*
X88336380Y-111688571D01*
X88288761Y-111593333D01*
X88241142Y-111545714D01*
X88145904Y-111498095D01*
X87955428Y-111498095D01*
X87860190Y-111545714D01*
X87812571Y-111593333D01*
X87764952Y-111688571D01*
%TO.C,R20*%
X125357142Y-159802380D02*
X125023809Y-159326190D01*
X124785714Y-159802380D02*
X124785714Y-158802380D01*
X125166666Y-158802380D01*
X125261904Y-158850000D01*
X125309523Y-158897619D01*
X125357142Y-158992857D01*
X125357142Y-159135714D01*
X125309523Y-159230952D01*
X125261904Y-159278571D01*
X125166666Y-159326190D01*
X124785714Y-159326190D01*
X125738095Y-158897619D02*
X125785714Y-158850000D01*
X125880952Y-158802380D01*
X126119047Y-158802380D01*
X126214285Y-158850000D01*
X126261904Y-158897619D01*
X126309523Y-158992857D01*
X126309523Y-159088095D01*
X126261904Y-159230952D01*
X125690476Y-159802380D01*
X126309523Y-159802380D01*
X126928571Y-158802380D02*
X127023809Y-158802380D01*
X127119047Y-158850000D01*
X127166666Y-158897619D01*
X127214285Y-158992857D01*
X127261904Y-159183333D01*
X127261904Y-159421428D01*
X127214285Y-159611904D01*
X127166666Y-159707142D01*
X127119047Y-159754761D01*
X127023809Y-159802380D01*
X126928571Y-159802380D01*
X126833333Y-159754761D01*
X126785714Y-159707142D01*
X126738095Y-159611904D01*
X126690476Y-159421428D01*
X126690476Y-159183333D01*
X126738095Y-158992857D01*
X126785714Y-158897619D01*
X126833333Y-158850000D01*
X126928571Y-158802380D01*
%TO.C,R75*%
X85796380Y-129166857D02*
X85320190Y-129500190D01*
X85796380Y-129738285D02*
X84796380Y-129738285D01*
X84796380Y-129357333D01*
X84844000Y-129262095D01*
X84891619Y-129214476D01*
X84986857Y-129166857D01*
X85129714Y-129166857D01*
X85224952Y-129214476D01*
X85272571Y-129262095D01*
X85320190Y-129357333D01*
X85320190Y-129738285D01*
X84796380Y-128833523D02*
X84796380Y-128166857D01*
X85796380Y-128595428D01*
X84796380Y-127309714D02*
X84796380Y-127785904D01*
X85272571Y-127833523D01*
X85224952Y-127785904D01*
X85177333Y-127690666D01*
X85177333Y-127452571D01*
X85224952Y-127357333D01*
X85272571Y-127309714D01*
X85367809Y-127262095D01*
X85605904Y-127262095D01*
X85701142Y-127309714D01*
X85748761Y-127357333D01*
X85796380Y-127452571D01*
X85796380Y-127690666D01*
X85748761Y-127785904D01*
X85701142Y-127833523D01*
%TO.C,R69*%
X68472142Y-120848380D02*
X68138809Y-120372190D01*
X67900714Y-120848380D02*
X67900714Y-119848380D01*
X68281666Y-119848380D01*
X68376904Y-119896000D01*
X68424523Y-119943619D01*
X68472142Y-120038857D01*
X68472142Y-120181714D01*
X68424523Y-120276952D01*
X68376904Y-120324571D01*
X68281666Y-120372190D01*
X67900714Y-120372190D01*
X69329285Y-119848380D02*
X69138809Y-119848380D01*
X69043571Y-119896000D01*
X68995952Y-119943619D01*
X68900714Y-120086476D01*
X68853095Y-120276952D01*
X68853095Y-120657904D01*
X68900714Y-120753142D01*
X68948333Y-120800761D01*
X69043571Y-120848380D01*
X69234047Y-120848380D01*
X69329285Y-120800761D01*
X69376904Y-120753142D01*
X69424523Y-120657904D01*
X69424523Y-120419809D01*
X69376904Y-120324571D01*
X69329285Y-120276952D01*
X69234047Y-120229333D01*
X69043571Y-120229333D01*
X68948333Y-120276952D01*
X68900714Y-120324571D01*
X68853095Y-120419809D01*
X69900714Y-120848380D02*
X70091190Y-120848380D01*
X70186428Y-120800761D01*
X70234047Y-120753142D01*
X70329285Y-120610285D01*
X70376904Y-120419809D01*
X70376904Y-120038857D01*
X70329285Y-119943619D01*
X70281666Y-119896000D01*
X70186428Y-119848380D01*
X69995952Y-119848380D01*
X69900714Y-119896000D01*
X69853095Y-119943619D01*
X69805476Y-120038857D01*
X69805476Y-120276952D01*
X69853095Y-120372190D01*
X69900714Y-120419809D01*
X69995952Y-120467428D01*
X70186428Y-120467428D01*
X70281666Y-120419809D01*
X70329285Y-120372190D01*
X70376904Y-120276952D01*
%TO.C,D1*%
X122451904Y-177362380D02*
X122451904Y-176362380D01*
X122690000Y-176362380D01*
X122832857Y-176410000D01*
X122928095Y-176505238D01*
X122975714Y-176600476D01*
X123023333Y-176790952D01*
X123023333Y-176933809D01*
X122975714Y-177124285D01*
X122928095Y-177219523D01*
X122832857Y-177314761D01*
X122690000Y-177362380D01*
X122451904Y-177362380D01*
X123975714Y-177362380D02*
X123404285Y-177362380D01*
X123690000Y-177362380D02*
X123690000Y-176362380D01*
X123594761Y-176505238D01*
X123499523Y-176600476D01*
X123404285Y-176648095D01*
%TO.C,R76*%
X90876380Y-129674857D02*
X90400190Y-130008190D01*
X90876380Y-130246285D02*
X89876380Y-130246285D01*
X89876380Y-129865333D01*
X89924000Y-129770095D01*
X89971619Y-129722476D01*
X90066857Y-129674857D01*
X90209714Y-129674857D01*
X90304952Y-129722476D01*
X90352571Y-129770095D01*
X90400190Y-129865333D01*
X90400190Y-130246285D01*
X89876380Y-129341523D02*
X89876380Y-128674857D01*
X90876380Y-129103428D01*
X89876380Y-127865333D02*
X89876380Y-128055809D01*
X89924000Y-128151047D01*
X89971619Y-128198666D01*
X90114476Y-128293904D01*
X90304952Y-128341523D01*
X90685904Y-128341523D01*
X90781142Y-128293904D01*
X90828761Y-128246285D01*
X90876380Y-128151047D01*
X90876380Y-127960571D01*
X90828761Y-127865333D01*
X90781142Y-127817714D01*
X90685904Y-127770095D01*
X90447809Y-127770095D01*
X90352571Y-127817714D01*
X90304952Y-127865333D01*
X90257333Y-127960571D01*
X90257333Y-128151047D01*
X90304952Y-128246285D01*
X90352571Y-128293904D01*
X90447809Y-128341523D01*
%TO.C,C49*%
X72493142Y-109862857D02*
X72540761Y-109910476D01*
X72588380Y-110053333D01*
X72588380Y-110148571D01*
X72540761Y-110291428D01*
X72445523Y-110386666D01*
X72350285Y-110434285D01*
X72159809Y-110481904D01*
X72016952Y-110481904D01*
X71826476Y-110434285D01*
X71731238Y-110386666D01*
X71636000Y-110291428D01*
X71588380Y-110148571D01*
X71588380Y-110053333D01*
X71636000Y-109910476D01*
X71683619Y-109862857D01*
X71921714Y-109005714D02*
X72588380Y-109005714D01*
X71540761Y-109243809D02*
X72255047Y-109481904D01*
X72255047Y-108862857D01*
X72588380Y-108434285D02*
X72588380Y-108243809D01*
X72540761Y-108148571D01*
X72493142Y-108100952D01*
X72350285Y-108005714D01*
X72159809Y-107958095D01*
X71778857Y-107958095D01*
X71683619Y-108005714D01*
X71636000Y-108053333D01*
X71588380Y-108148571D01*
X71588380Y-108339047D01*
X71636000Y-108434285D01*
X71683619Y-108481904D01*
X71778857Y-108529523D01*
X72016952Y-108529523D01*
X72112190Y-108481904D01*
X72159809Y-108434285D01*
X72207428Y-108339047D01*
X72207428Y-108148571D01*
X72159809Y-108053333D01*
X72112190Y-108005714D01*
X72016952Y-107958095D01*
D11*
%TO.C,R7*%
X89435000Y-118612936D02*
X89435000Y-119067064D01*
X90905000Y-118612936D02*
X90905000Y-119067064D01*
%TO.C,R_Xs_83*%
X73617064Y-156745000D02*
X73162936Y-156745000D01*
X73617064Y-158215000D02*
X73162936Y-158215000D01*
%TO.C,R_As_83*%
X73617064Y-132815000D02*
X73162936Y-132815000D01*
X73617064Y-131345000D02*
X73162936Y-131345000D01*
%TO.C,R70*%
X70585000Y-118067064D02*
X70585000Y-117612936D01*
X69115000Y-118067064D02*
X69115000Y-117612936D01*
%TO.C,R65*%
X66575000Y-112532936D02*
X66575000Y-112987064D01*
X68045000Y-112532936D02*
X68045000Y-112987064D01*
%TO.C,Q_EN_13*%
X76890000Y-163300000D02*
X76890000Y-166900000D01*
X76901522Y-166938478D02*
G75*
G03*
X81340000Y-165100000I1838478J1838478D01*
G01*
X81340001Y-165100000D02*
G75*
G03*
X76901522Y-163261522I-2600001J0D01*
G01*
%TO.C,R_Bd_83*%
X83777064Y-150395000D02*
X83322936Y-150395000D01*
X83777064Y-151865000D02*
X83322936Y-151865000D01*
%TO.C,C50*%
X73125000Y-118101252D02*
X73125000Y-117578748D01*
X71655000Y-118101252D02*
X71655000Y-117578748D01*
%TO.C,R74*%
X69115000Y-123147064D02*
X69115000Y-122692936D01*
X70585000Y-123147064D02*
X70585000Y-122692936D01*
%TO.C,R_EN_56*%
X83322936Y-165635000D02*
X83777064Y-165635000D01*
X83322936Y-167105000D02*
X83777064Y-167105000D01*
%TO.C,R_Yd_56*%
X83322936Y-148055000D02*
X83777064Y-148055000D01*
X83322936Y-146585000D02*
X83777064Y-146585000D01*
%TO.C,R_PWM_83*%
X73617064Y-163095000D02*
X73162936Y-163095000D01*
X73617064Y-164565000D02*
X73162936Y-164565000D01*
%TO.C,R_Zd_83*%
X83777064Y-139165000D02*
X83322936Y-139165000D01*
X83777064Y-137695000D02*
X83322936Y-137695000D01*
%TO.C,C53*%
X88365000Y-125721252D02*
X88365000Y-125198748D01*
X86895000Y-125721252D02*
X86895000Y-125198748D01*
%TO.C,Q_As_13*%
X66730000Y-131550000D02*
X66730000Y-135150000D01*
X71180001Y-133350000D02*
G75*
G03*
X66741522Y-131511522I-2600001J0D01*
G01*
X66741522Y-135188478D02*
G75*
G03*
X71180000Y-133350000I1838478J1838478D01*
G01*
%TO.C,J1*%
X53240000Y-114250000D02*
X63720000Y-114250000D01*
X64614338Y-157230000D02*
X64614338Y-157730000D01*
X63720000Y-167470000D02*
X53240000Y-167470000D01*
X64181325Y-157480000D02*
X64614338Y-157230000D01*
X64614338Y-157730000D02*
X64181325Y-157480000D01*
X63720000Y-114250000D02*
X63720000Y-167470000D01*
%TO.C,C20*%
X85787500Y-119138752D02*
X85787500Y-118616248D01*
X84317500Y-119138752D02*
X84317500Y-118616248D01*
%TO.C,R_Xd_83*%
X83777064Y-158215000D02*
X83322936Y-158215000D01*
X83777064Y-156745000D02*
X83322936Y-156745000D01*
%TO.C,Q_Xd_13*%
X76890000Y-156950000D02*
X76890000Y-160550000D01*
X81340001Y-158750000D02*
G75*
G03*
X76901522Y-156911522I-2600001J0D01*
G01*
X76901522Y-160588478D02*
G75*
G03*
X81340000Y-158750000I1838478J1838478D01*
G01*
%TO.C,R10*%
X117882936Y-174525000D02*
X118337064Y-174525000D01*
X117882936Y-175995000D02*
X118337064Y-175995000D01*
%TO.C,R_Yd_83*%
X83777064Y-144045000D02*
X83322936Y-144045000D01*
X83777064Y-145515000D02*
X83322936Y-145515000D01*
%TO.C,R_Ad_83*%
X83777064Y-131345000D02*
X83322936Y-131345000D01*
X83777064Y-132815000D02*
X83322936Y-132815000D01*
%TO.C,SW1*%
X69430000Y-107100000D02*
X73930000Y-107100000D01*
X68180000Y-103100000D02*
X68180000Y-104600000D01*
X75180000Y-104600000D02*
X75180000Y-103100000D01*
X73930000Y-100600000D02*
X69430000Y-100600000D01*
%TO.C,R73*%
X66575000Y-122692936D02*
X66575000Y-123147064D01*
X68045000Y-122692936D02*
X68045000Y-123147064D01*
%TO.C,J40*%
X92400000Y-171330000D02*
X92400000Y-174660000D01*
X91750000Y-186810000D02*
X106370000Y-186810000D01*
X105720000Y-171330000D02*
X105720000Y-174660000D01*
X91750000Y-186290000D02*
X91750000Y-186810000D01*
X92400000Y-171330000D02*
X105720000Y-171330000D01*
X105720000Y-178180000D02*
X105720000Y-186290000D01*
X94660000Y-171110000D02*
X96460000Y-171110000D01*
X106370000Y-186290000D02*
X105720000Y-186290000D01*
X92400000Y-186290000D02*
X92400000Y-178180000D01*
X106370000Y-186810000D02*
X106370000Y-186290000D01*
X92400000Y-186290000D02*
X91750000Y-186290000D01*
%TO.C,R_Ys_83*%
X73617064Y-144045000D02*
X73162936Y-144045000D01*
X73617064Y-145515000D02*
X73162936Y-145515000D01*
%TO.C,R_Xs_56*%
X73162936Y-160755000D02*
X73617064Y-160755000D01*
X73162936Y-159285000D02*
X73617064Y-159285000D01*
%TO.C,R_As_56*%
X73162936Y-135355000D02*
X73617064Y-135355000D01*
X73162936Y-133885000D02*
X73617064Y-133885000D01*
%TO.C,R_Ys_56*%
X73162936Y-146585000D02*
X73617064Y-146585000D01*
X73162936Y-148055000D02*
X73617064Y-148055000D01*
%TO.C,R66*%
X69115000Y-112987064D02*
X69115000Y-112532936D01*
X70585000Y-112987064D02*
X70585000Y-112532936D01*
%TO.C,R_PWM_56*%
X73162936Y-165635000D02*
X73617064Y-165635000D01*
X73162936Y-167105000D02*
X73617064Y-167105000D01*
%TO.C,R_Bs_83*%
X73617064Y-151865000D02*
X73162936Y-151865000D01*
X73617064Y-150395000D02*
X73162936Y-150395000D01*
%TO.C,R_Xd_56*%
X83322936Y-160755000D02*
X83777064Y-160755000D01*
X83322936Y-159285000D02*
X83777064Y-159285000D01*
%TO.C,J32*%
X116780000Y-165100000D02*
X119440000Y-165100000D01*
X119440000Y-165100000D02*
X119440000Y-170240000D01*
X116780000Y-170240000D02*
X119440000Y-170240000D01*
X116780000Y-162500000D02*
X118110000Y-162500000D01*
X116780000Y-165100000D02*
X116780000Y-170240000D01*
X116780000Y-163830000D02*
X116780000Y-162500000D01*
%TO.C,J30*%
X121860000Y-170240000D02*
X127060000Y-170240000D01*
X121860000Y-165100000D02*
X121860000Y-170240000D01*
X124460000Y-162500000D02*
X127060000Y-162500000D01*
X124460000Y-165100000D02*
X124460000Y-162500000D01*
X121860000Y-162500000D02*
X123190000Y-162500000D01*
X121860000Y-163830000D02*
X121860000Y-162500000D01*
X127060000Y-162500000D02*
X127060000Y-170240000D01*
X121860000Y-165100000D02*
X124460000Y-165100000D01*
%TO.C,R_Bd_56*%
X83322936Y-152935000D02*
X83777064Y-152935000D01*
X83322936Y-154405000D02*
X83777064Y-154405000D01*
%TO.C,J2*%
X124520000Y-185480000D02*
X124520000Y-182820000D01*
X110490000Y-185480000D02*
X109160000Y-185480000D01*
X111760000Y-182820000D02*
X124520000Y-182820000D01*
X111760000Y-185480000D02*
X111760000Y-182820000D01*
X109160000Y-185480000D02*
X109160000Y-184150000D01*
X111760000Y-185480000D02*
X124520000Y-185480000D01*
%TO.C,U18*%
X77740000Y-111430000D02*
X76090000Y-111430000D01*
X76090000Y-111430000D02*
X76090000Y-129330000D01*
X81390000Y-111430000D02*
X79740000Y-111430000D01*
X76090000Y-129330000D02*
X81390000Y-129330000D01*
X81390000Y-129330000D02*
X81390000Y-111430000D01*
X77740000Y-111430000D02*
G75*
G03*
X79740000Y-111430000I1000000J0D01*
G01*
%TO.C,Q_PWM_13*%
X66730000Y-163300000D02*
X66730000Y-166900000D01*
X71180001Y-165100000D02*
G75*
G03*
X66741522Y-163261522I-2600001J0D01*
G01*
X66741522Y-166938478D02*
G75*
G03*
X71180000Y-165100000I1838478J1838478D01*
G01*
D12*
%TO.C,U30*%
X118450000Y-158840000D02*
X97450000Y-158840000D01*
X97450000Y-158840000D02*
X97450000Y-107850000D01*
X97450000Y-107850000D02*
X118450000Y-107850000D01*
X118450000Y-107850000D02*
X118450000Y-158840000D01*
D11*
X111960000Y-160140000D02*
X103940000Y-160140000D01*
X103940000Y-160140000D02*
X103940000Y-152400000D01*
X103940000Y-152400000D02*
X111960000Y-152400000D01*
X111960000Y-152400000D02*
X111960000Y-160140000D01*
%TO.C,Q_Zd_13*%
X76890000Y-137900000D02*
X76890000Y-141500000D01*
X81340001Y-139700000D02*
G75*
G03*
X76901522Y-137861522I-2600001J0D01*
G01*
X76901522Y-141538478D02*
G75*
G03*
X81340000Y-139700000I1838478J1838478D01*
G01*
%TO.C,C51*%
X71655000Y-123181252D02*
X71655000Y-122658748D01*
X73125000Y-123181252D02*
X73125000Y-122658748D01*
%TO.C,Q_Bs_13*%
X66730000Y-150600000D02*
X66730000Y-154200000D01*
X66741522Y-154238478D02*
G75*
G03*
X71180000Y-152400000I1838478J1838478D01*
G01*
X71180001Y-152400000D02*
G75*
G03*
X66741522Y-150561522I-2600001J0D01*
G01*
%TO.C,Q_Yd_13*%
X76890000Y-144250000D02*
X76890000Y-147850000D01*
X81340001Y-146050000D02*
G75*
G03*
X76901522Y-144211522I-2600001J0D01*
G01*
X76901522Y-147888478D02*
G75*
G03*
X81340000Y-146050000I1838478J1838478D01*
G01*
%TO.C,R9*%
X86857500Y-119067064D02*
X86857500Y-118612936D01*
X88327500Y-119067064D02*
X88327500Y-118612936D01*
%TO.C,C48*%
X85825000Y-112498748D02*
X85825000Y-113021252D01*
X84355000Y-112498748D02*
X84355000Y-113021252D01*
%TO.C,R20*%
X125772936Y-160265000D02*
X126227064Y-160265000D01*
X125772936Y-161735000D02*
X126227064Y-161735000D01*
%TO.C,R75*%
X84355000Y-125232936D02*
X84355000Y-125687064D01*
X85825000Y-125232936D02*
X85825000Y-125687064D01*
%TO.C,R_EN_83*%
X83777064Y-164565000D02*
X83322936Y-164565000D01*
X83777064Y-163095000D02*
X83322936Y-163095000D01*
%TO.C,R_Ad_56*%
X83322936Y-135355000D02*
X83777064Y-135355000D01*
X83322936Y-133885000D02*
X83777064Y-133885000D01*
%TO.C,Q_Ad_13*%
X76890000Y-131550000D02*
X76890000Y-135150000D01*
X76901522Y-135188478D02*
G75*
G03*
X81340000Y-133350000I1838478J1838478D01*
G01*
X81340001Y-133350000D02*
G75*
G03*
X76901522Y-131511522I-2600001J0D01*
G01*
%TO.C,R69*%
X66575000Y-117612936D02*
X66575000Y-118067064D01*
X68045000Y-117612936D02*
X68045000Y-118067064D01*
%TO.C,Q_Zs_13*%
X66730000Y-137900000D02*
X66730000Y-141500000D01*
X66741522Y-141538478D02*
G75*
G03*
X71180000Y-139700000I1838478J1838478D01*
G01*
X71180001Y-139700000D02*
G75*
G03*
X66741522Y-137861522I-2600001J0D01*
G01*
%TO.C,D1*%
X122190000Y-176220000D02*
X125050000Y-176220000D01*
X125050000Y-176220000D02*
X125050000Y-174300000D01*
X125050000Y-174300000D02*
X122190000Y-174300000D01*
%TO.C,R_Zs_83*%
X73617064Y-139165000D02*
X73162936Y-139165000D01*
X73617064Y-137695000D02*
X73162936Y-137695000D01*
%TO.C,R_Bs_56*%
X73162936Y-152935000D02*
X73617064Y-152935000D01*
X73162936Y-154405000D02*
X73617064Y-154405000D01*
%TO.C,R76*%
X90905000Y-125687064D02*
X90905000Y-125232936D01*
X89435000Y-125687064D02*
X89435000Y-125232936D01*
%TO.C,C49*%
X73125000Y-113021252D02*
X73125000Y-112498748D01*
X71655000Y-113021252D02*
X71655000Y-112498748D01*
%TO.C,Q_Bd_13*%
X76890000Y-150600000D02*
X76890000Y-154200000D01*
X81340001Y-152400000D02*
G75*
G03*
X76901522Y-150561522I-2600001J0D01*
G01*
X76901522Y-154238478D02*
G75*
G03*
X81340000Y-152400000I1838478J1838478D01*
G01*
%TO.C,Q_Ys_13*%
X66741522Y-147888478D02*
G75*
G03*
X71180000Y-146050000I1838478J1838478D01*
G01*
X71180001Y-146050000D02*
G75*
G03*
X66741522Y-144211522I-2600001J0D01*
G01*
X66730000Y-144250000D02*
X66730000Y-147850000D01*
%TO.C,Q_Xs_13*%
X66730000Y-156950000D02*
X66730000Y-160550000D01*
X66741522Y-160588478D02*
G75*
G03*
X71180000Y-158750000I1838478J1838478D01*
G01*
X71180001Y-158750000D02*
G75*
G03*
X66741522Y-156911522I-2600001J0D01*
G01*
%TO.C,R_Zs_56*%
X73162936Y-140235000D02*
X73617064Y-140235000D01*
X73162936Y-141705000D02*
X73617064Y-141705000D01*
%TO.C,R_Zd_56*%
X83322936Y-141705000D02*
X83777064Y-141705000D01*
X83322936Y-140235000D02*
X83777064Y-140235000D01*
%TD*%
M02*
